<?xml version="1.0" encoding="utf-8"?>
<!-- Generator: Adobe Illustrator 24.0.3, SVG Export Plug-In . SVG Version: 6.00 Build 0)  -->
<svg version="1.1" id="Layer_1" xmlns="http://www.w3.org/2000/svg" xmlns:xlink="http://www.w3.org/1999/xlink" x="0px" y="0px"
	 viewBox="0 0 1024 768" style="enable-background:new 0 0 1024 768;" xml:space="preserve">
<style type="text/css">
	.st0{opacity:0.2;fill:#F4ABAB;}
	.st1{opacity:0.2;fill:#F3B456;}
	.st2{opacity:0.2;fill:#946BAE;}
	.st3{opacity:0.2;fill:#E8C5DE;}
	.st4{opacity:0.2;fill:#AFDFDF;}
</style>
<path class="st0" d="M156.68,648.63c11.61,3.08,24.05,1.51,35.6-5.52c28.55-17.39,40.85-61.56,27.47-98.67
	c-11.41-31.67-37.83-47.95-63.08-41.25L156.68,648.63"/>
<path class="st1" d="M407.98,767.34c6.07-23.38,5.48-49.71-3.21-73.81c-17.89-49.64-63.35-71.03-101.54-47.77
	c-35.56,21.66-52.28,74.4-39.96,121.63h144.7"/>
<path class="st2" d="M278.18,767.39c7.29-28.08,6.58-59.72-3.85-88.68c-20.82-57.76-72.72-83.68-117.64-59.85v148.53H278.18
	c-0.05,0.2-0.11,0.41-0.16,0.61"/>
<ellipse class="st3" cx="266.09" cy="593.89" rx="66.56" ry="86.52"/>
<path class="st1" d="M156.41,537.61c19.02,35.18,55.28,48.63,86.28,29.75c34.75-21.16,49.72-74.93,33.44-120.09
	s-57.64-64.63-92.39-43.47c-11.2,6.82-20.35,17.03-27.05,29.25L156.41,537.61z"/>
<ellipse class="st0" cx="430.23" cy="451.59" rx="45.86" ry="59.61"/>
<ellipse class="st4" cx="393.15" cy="286.44" rx="104.57" ry="135.92"/>
<ellipse class="st2" cx="355.52" cy="406.95" rx="41.69" ry="54.19"/>
<ellipse class="st0" cx="267.82" cy="366.76" rx="57.08" ry="74.2"/>
<ellipse class="st4" cx="358.5" cy="507.34" rx="53.7" ry="69.8"/>
<path class="st1" d="M521.26,65.33c-2.14,1.89-4.42,3.59-6.83,5.06c-24.44,14.88-53.54,1.2-64.99-30.58
	c-4.63-12.84-5.67-26.67-3.65-39.57l75.47,0"/>
<ellipse class="st0" cx="294.48" cy="496.46" rx="22.1" ry="28.72"/>
<path class="st3" d="M156.64,248.16c13.62,7.19,29.43,7.26,43.79-1.49c27.36-16.66,39.14-58.99,26.33-94.55
	c-12.41-34.43-43.33-49.89-70.12-35.72L156.64,248.16z"/>
<path class="st0" d="M496.69,767.34c2.15-12.44,1.25-25.86-3.23-38.3c-10.75-29.81-38.05-42.66-60.98-28.69
	c-19.85,12.09-29.92,40.29-25.31,66.99L496.69,767.34"/>
<path class="st1" d="M521.26,239.61c-9.25,1.37-18.5,4.68-27.4,10.1c-44.01,26.8-62.98,94.91-42.36,152.13
	c13.45,37.32,40.42,60.78,69.76,65.15"/>
<path class="st2" d="M521.18,129.73c-31.37,23.05-44.26,74-28.72,117.13c6.38,17.71,16.61,31.48,28.79,40.4"/>
<ellipse class="st0" cx="304.8" cy="699.64" rx="22.1" ry="28.72"/>
<path class="st4" d="M192.81,0.26c11.39,12.8,18.6,31.72,18.6,52.82c0,38.55-24.04,69.8-53.7,69.8c-0.35,0-0.71,0-1.06-0.01V0.4
	l36.16,0"/>
<path class="st3" d="M521.26,426.84c-14.51-4.92-30.38-3.53-45.02,5.38c-33.29,20.27-47.63,71.78-32.04,115.06
	c13.84,38.39,46.59,57.4,77.05,47.04"/>
<ellipse class="st0" cx="414.49" cy="608.04" rx="48.35" ry="62.85"/>
<ellipse class="st2" cx="423.01" cy="530.43" rx="22.1" ry="28.72"/>
<path class="st2" d="M231.75,413.04c12.88-25.42,15.59-58.68,4.93-88.26c-14.4-39.94-48.37-59.82-80.08-49.37l-0.27,175.42
	c15.11,5.05,31.61,3.57,46.85-5.71C215.24,437.78,224.92,426.51,231.75,413.04"/>
<ellipse class="st0" cx="471.59" cy="157.64" rx="22.1" ry="28.72"/>
<path class="st2" d="M313.37,0.52c-8.27,23.37-8.87,51.15,0.19,76.27c16.31,45.26,57.76,64.76,92.58,43.56
	c12.06-7.35,21.75-18.61,28.58-32.09C447.59,62.84,450.3,29.58,439.64,0L313.37,0.52"/>
<ellipse class="st1" cx="252.2" cy="111.17" rx="69.48" ry="90.31"/>
<ellipse class="st0" cx="252.2" cy="253.41" rx="45.86" ry="59.61"/>
<path class="st4" d="M521.26,68c-6.39-6.89-14.6-11.04-23.55-11.04c-20.38,0-36.9,21.47-36.9,47.96s16.52,47.96,36.9,47.96
	c8.91,0,17.09-4.11,23.47-10.95"/>
<path class="st0" d="M191.77,0.4c0.74,9.98,2.79,19.97,6.25,29.57c16.25,45.09,57.55,64.52,92.24,43.4
	c22.97-13.99,37.28-42.24,39.62-72.83L191.77,0.4z"/>
<ellipse class="st2" cx="341.41" cy="146.68" rx="22.1" ry="28.72"/>
<ellipse class="st1" cx="436.58" cy="139.79" rx="15.59" ry="20.26"/>
<ellipse class="st2" cx="408.93" cy="135.19" rx="12.05" ry="15.67"/>
<ellipse class="st4" cx="388.42" cy="138.05" rx="8.45" ry="10.99"/>
<ellipse class="st0" cx="371.32" cy="140.31" rx="7.81" ry="10.15"/>
<ellipse class="st2" cx="448.63" cy="108.01" rx="12.05" ry="15.67"/>
<ellipse class="st4" cx="454.69" cy="81.91" rx="8.45" ry="10.99"/>
<ellipse class="st0" cx="451.66" cy="61.43" rx="7.3" ry="9.49"/>
<ellipse class="st4" cx="422.06" cy="120.79" rx="4.82" ry="6.27"/>
<ellipse class="st4" cx="431.7" cy="113.25" rx="4.82" ry="6.27"/>
<ellipse class="st0" cx="316.06" cy="174.21" rx="10.04" ry="13.04"/>
<ellipse class="st4" cx="301.65" cy="193.41" rx="10.16" ry="13.2"/>
<ellipse class="st2" cx="285.46" cy="200.02" rx="6.03" ry="7.83"/>
<ellipse class="st2" cx="295.91" cy="214.45" rx="6.03" ry="7.83"/>
<ellipse class="st2" cx="479.85" cy="194.21" rx="6.03" ry="7.83"/>
<ellipse class="st0" cx="327.34" cy="113.94" rx="5.65" ry="7.34"/>
<ellipse class="st4" cx="196.17" cy="263.93" rx="10.16" ry="13.2"/>
<ellipse class="st2" cx="179.3" cy="263.03" rx="6.03" ry="7.83"/>
<ellipse class="st1" cx="165.6" cy="262.48" rx="6.98" ry="9.07"/>
<ellipse class="st4" cx="290.4" cy="452.21" rx="11.29" ry="14.67"/>
<ellipse class="st2" cx="306.79" cy="462.18" rx="6.03" ry="7.83"/>
<ellipse class="st2" cx="303.55" cy="436.28" rx="6.03" ry="7.83"/>
<ellipse class="st1" cx="315.89" cy="449.09" rx="6.98" ry="9.07"/>
<ellipse class="st0" cx="309.49" cy="425.7" rx="3.32" ry="4.32"/>
<ellipse class="st0" cx="305.3" cy="449.09" rx="3.32" ry="4.32"/>
<ellipse class="st4" cx="313.82" cy="434.43" rx="4.06" ry="5.28"/>
<ellipse class="st4" cx="355.48" cy="624.71" rx="11.29" ry="14.67"/>
<ellipse class="st2" cx="359.38" cy="602.2" rx="6.03" ry="7.83"/>
<ellipse class="st2" cx="336.68" cy="626.71" rx="7.42" ry="9.64"/>
<ellipse class="st2" cx="366.77" cy="638.54" rx="3.96" ry="5.14"/>
<ellipse class="st0" cx="342.63" cy="614.36" rx="3.32" ry="4.32"/>
<ellipse class="st1" cx="340.45" cy="600.96" rx="6.98" ry="9.07"/>
<ellipse class="st1" cx="362.96" cy="584.35" rx="5.03" ry="6.54"/>
<ellipse class="st0" cx="350.22" cy="606.52" rx="3.32" ry="4.32"/>
<ellipse class="st4" cx="335.35" cy="612.75" rx="2.68" ry="3.48"/>
<ellipse class="st4" cx="351.36" cy="589.1" rx="6.32" ry="8.21"/>
<ellipse class="st2" cx="337.95" cy="585.81" rx="4.68" ry="6.08"/>
<ellipse class="st0" cx="344.77" cy="580.02" rx="3.32" ry="4.32"/>
<ellipse class="st1" cx="335.1" cy="576.02" rx="2.76" ry="3.59"/>
<ellipse class="st2" cx="408.33" cy="680.56" rx="7.42" ry="9.64"/>
<ellipse class="st0" cx="399.11" cy="672.7" rx="3.32" ry="4.32"/>
<ellipse class="st4" cx="416.12" cy="699.64" rx="8.4" ry="10.92"/>
<ellipse class="st1" cx="421.09" cy="683.11" rx="4.97" ry="6.46"/>
<ellipse class="st0" cx="413.44" cy="714.04" rx="2.68" ry="3.49"/>
<ellipse class="st0" cx="426.57" cy="691.89" rx="3.32" ry="4.32"/>
<ellipse class="st2" cx="437.31" cy="687.57" rx="7.42" ry="9.64"/>
<ellipse class="st1" cx="427.02" cy="699.64" rx="1.91" ry="2.49"/>
<ellipse class="st4" cx="430.85" cy="697.15" rx="1.91" ry="2.49"/>
<ellipse class="st4" cx="428.94" cy="675.69" rx="4.28" ry="5.57"/>
<ellipse class="st1" cx="440.25" cy="670.13" rx="5.87" ry="7.63"/>
<ellipse class="st0" cx="445.46" cy="661.37" rx="2.67" ry="3.47"/>
<ellipse class="st0" cx="422.44" cy="673.94" rx="2.08" ry="2.7"/>
<ellipse class="st1" cx="470.73" cy="608.87" rx="6.98" ry="9.07"/>
<ellipse class="st2" cx="486.58" cy="601.19" rx="4.68" ry="6.09"/>
<ellipse class="st4" cx="465.31" cy="587.6" rx="4.28" ry="5.57"/>
<ellipse class="st0" cx="465.74" cy="620.74" rx="2.88" ry="3.74"/>
<ellipse class="st0" cx="465.94" cy="597.72" rx="2.67" ry="3.47"/>
<ellipse class="st0" cx="478.65" cy="601.19" rx="2.67" ry="3.47"/>
<ellipse class="st2" cx="471.76" cy="594.24" rx="3.44" ry="4.47"/>
<ellipse class="st1" cx="461.03" cy="581.03" rx="1.86" ry="2.42"/>
<ellipse class="st4" cx="477.71" cy="594.24" rx="2.49" ry="3.24"/>
<ellipse class="st1" cx="493.13" cy="599.54" rx="1.86" ry="2.42"/>
<ellipse class="st0" cx="496.45" cy="601.19" rx="1.46" ry="1.89"/>
<ellipse class="st4" cx="499.85" cy="600.09" rx="1.35" ry="1.75"/>
<ellipse class="st4" cx="480.69" cy="607.6" rx="2.49" ry="3.24"/>
<path class="st4" d="M521.26,65.33l0-65.08v767.09l-45.38-0.24c-18.56-16.3-30.76-43.9-30.76-75.21c0-50.09,31.24-90.7,69.77-90.7
	c2.15,0,4.27,0.13,6.37,0.37"/>
<line class="st4" x1="521.19" y1="141.93" x2="521.26" y2="68"/>
<ellipse class="st2" cx="502.97" cy="599.87" rx="0.78" ry="1.01"/>
<ellipse class="st4" cx="442.62" cy="551.74" rx="2.49" ry="3.24"/>
<ellipse class="st1" cx="445.31" cy="556.24" rx="1.59" ry="2.06"/>
<ellipse class="st1" cx="432.89" cy="100.9" rx="4.1" ry="5.33"/>
<line class="st2" x1="521.26" y1="287.27" x2="521.26" y2="129.73"/>
<path class="st4" d="M192.81,0.26"/>
<ellipse class="st0" cx="438.03" cy="92.34" rx="3.46" ry="4.5"/>
<ellipse class="st2" cx="442.17" cy="83.99" rx="3.79" ry="4.93"/>
<ellipse class="st4" cx="444.11" cy="75.27" rx="2.62" ry="3.41"/>
<ellipse class="st2" cx="462.02" cy="68.21" rx="3.79" ry="4.93"/>
<ellipse class="st4" cx="449.35" cy="48.54" rx="2.62" ry="3.41"/>
<ellipse class="st1" cx="458.23" cy="126.08" rx="4.59" ry="5.97"/>
<ellipse class="st2" cx="445.12" cy="162.57" rx="3.79" ry="4.93"/>
<ellipse class="st1" cx="482.27" cy="206.09" rx="2.75" ry="3.58"/>
<ellipse class="st1" cx="471.59" cy="190.7" rx="2.09" ry="2.72"/>
<ellipse class="st1" cx="485.03" cy="185.36" rx="2.09" ry="2.72"/>
<ellipse class="st0" cx="423.84" cy="111.27" rx="2.5" ry="3.25"/>
<ellipse class="st2" cx="426.88" cy="106.98" rx="1.46" ry="1.9"/>
<ellipse class="st2" cx="460.01" cy="118.21" rx="1.46" ry="1.9"/>
<ellipse class="st4" cx="454.07" cy="133.8" rx="1.9" ry="2.46"/>
<ellipse class="st0" cx="451.08" cy="126.24" rx="2.05" ry="2.67"/>
<ellipse class="st1" cx="443.3" cy="91.13" rx="1.46" ry="1.9"/>
<ellipse class="st1" cx="458.96" cy="94.59" rx="1.73" ry="2.25"/>
<ellipse class="st0" cx="464.62" cy="75.85" rx="2.05" ry="2.66"/>
<ellipse class="st1" cx="467.54" cy="71.25" rx="1.73" ry="2.25"/>
<ellipse class="st1" cx="444.52" cy="69" rx="1.44" ry="1.88"/>
<ellipse class="st2" cx="447.55" cy="71.73" rx="1.03" ry="1.34"/>
<ellipse class="st1" cx="448.41" cy="42.15" rx="1.44" ry="1.88"/>
<ellipse class="st1" cx="415.1" cy="118.19" rx="1.55" ry="2.02"/>
<ellipse class="st2" cx="417.01" cy="115.12" rx="1.04" ry="1.35"/>
<ellipse class="st2" cx="446.43" cy="89.78" rx="1.04" ry="1.35"/>
<ellipse class="st4" cx="335.24" cy="115.24" rx="1.85" ry="2.4"/>
<ellipse class="st4" cx="323.96" cy="104" rx="2" ry="2.6"/>
<ellipse class="st4" cx="323.47" cy="123.45" rx="2" ry="2.6"/>
<ellipse class="st0" cx="419.29" cy="149.75" rx="2.33" ry="3.03"/>
<ellipse class="st0" cx="397.27" cy="146.3" rx="2.33" ry="3.03"/>
<ellipse class="st0" cx="395.93" cy="128.65" rx="1.52" ry="1.97"/>
<ellipse class="st1" cx="378.96" cy="132.11" rx="1.55" ry="2.02"/>
<ellipse class="st1" cx="380.07" cy="147.52" rx="1.87" ry="2.42"/>
<ellipse class="st2" cx="365.99" cy="151.5" rx="1.46" ry="1.9"/>
<ellipse class="st2" cx="363.59" cy="131.25" rx="1.65" ry="2.14"/>
<ellipse class="st1" cx="495.98" cy="156.22" rx="1.73" ry="2.25"/>
<ellipse class="st0" cx="483.73" cy="212.82" rx="1.73" ry="2.25"/>
<ellipse class="st4" cx="443.25" cy="2.42" rx="1.39" ry="1.8"/>
<ellipse class="st0" cx="443.65" cy="6.31" rx="0.83" ry="1.08"/>
<ellipse class="st1" cx="328.55" cy="174.51" rx="2.14" ry="2.78"/>
<ellipse class="st1" cx="318.28" cy="158.49" rx="2.06" ry="2.68"/>
<ellipse class="st0" cx="316.82" cy="152.35" rx="2.03" ry="2.63"/>
<ellipse class="st4" cx="313.87" cy="158.16" rx="1.16" ry="1.5"/>
<ellipse class="st2" cx="303.67" cy="176.85" rx="2.03" ry="2.63"/>
<ellipse class="st1" cx="314.31" cy="190.73" rx="2.06" ry="2.68"/>
<ellipse class="st0" cx="303.2" cy="209.73" rx="1.75" ry="2.27"/>
<ellipse class="st1" cx="292.66" cy="204.55" rx="1.59" ry="2.07"/>
<ellipse class="st4" cx="289.3" cy="190.73" rx="1.57" ry="2.04"/>
<ellipse class="st4" cx="277.01" cy="198.82" rx="1.57" ry="2.04"/>
<ellipse class="st4" cx="287.92" cy="210.56" rx="1.57" ry="2.04"/>
<ellipse class="st0" cx="290.32" cy="207.66" rx="0.97" ry="1.26"/>
<ellipse class="st0" cx="296.15" cy="225.66" rx="1.75" ry="2.27"/>
<ellipse class="st1" cx="203.85" cy="277.13" rx="2.14" ry="2.78"/>
<ellipse class="st2" cx="206.16" cy="272.66" rx="1.16" ry="1.51"/>
<ellipse class="st0" cx="207.74" cy="277.13" rx="1.24" ry="1.61"/>
<ellipse class="st4" cx="208.86" cy="281.37" rx="1.21" ry="1.58"/>
<ellipse class="st1" cx="203.14" cy="249.68" rx="2.14" ry="2.78"/>
<ellipse class="st0" cx="185.33" cy="256.08" rx="1.64" ry="2.14"/>
<ellipse class="st1" cx="185.1" cy="270.57" rx="1.19" ry="1.55"/>
<ellipse class="st0" cx="172.77" cy="269.51" rx="1.27" ry="1.66"/>
<ellipse class="st0" cx="173.14" cy="256.67" rx="1.64" ry="2.14"/>
<ellipse class="st2" cx="160.42" cy="271.55" rx="1.19" ry="1.55"/>
<ellipse class="st0" cx="158.24" cy="268.78" rx="1.19" ry="1.55"/>
<ellipse class="st4" cx="158.94" cy="253.62" rx="1.89" ry="2.46"/>
<ellipse class="st0" cx="158.06" cy="258.07" rx="0.88" ry="1.14"/>
</svg>
