<?xml version="1.0" encoding="utf-8"?>
<!-- Generator: Adobe Illustrator 24.0.3, SVG Export Plug-In . SVG Version: 6.00 Build 0)  -->
<svg version="1.1" xmlns="http://www.w3.org/2000/svg" xmlns:xlink="http://www.w3.org/1999/xlink" x="0px" y="0px"
	 viewBox="0 0 252 144" style="enable-background:new 0 0 252 144;" xml:space="preserve">
<style type="text/css">
	.st0{opacity:0.35;fill:#F4ABAB;stroke:#000000;stroke-width:0.5;stroke-miterlimit:10;}
	.st1{opacity:0.47;fill:#F3B456;stroke:#000000;stroke-width:0.25;stroke-miterlimit:10;}
	.st2{opacity:0.46;fill:#946BAE;stroke:#000000;stroke-width:0.5;stroke-miterlimit:10;}
	.st3{opacity:0.85;fill:#E8C5DE;stroke:#000000;stroke-width:0.5;stroke-miterlimit:10;}
	.st4{opacity:0.61;fill:#F4ABAB;stroke:#000000;stroke-width:0.5;stroke-miterlimit:10;}
	.st5{opacity:0.51;fill:#AFDFDF;stroke:#000000;stroke-width:0.5;stroke-miterlimit:10;}
	.st6{opacity:0.57;fill:#946BAE;stroke:#000000;stroke-width:0.5;stroke-miterlimit:10;}
	.st7{opacity:0.4;fill:#AFDFDF;stroke:#000000;stroke-width:0.5;stroke-miterlimit:10;}
	.st8{opacity:0.3;fill:#F3B456;stroke:#000000;stroke-width:0.25;stroke-miterlimit:10;}
	.st9{opacity:0.41;fill:#F4ABAB;stroke:#000000;stroke-width:0.5;stroke-miterlimit:10;}
	.st10{opacity:0.77;fill:#E8C5DE;stroke:#000000;stroke-width:0.5;stroke-miterlimit:10;}
	.st11{opacity:0.71;fill:#E8C5DE;stroke:#000000;stroke-width:0.5;stroke-miterlimit:10;}
	.st12{opacity:0.28;fill:#946BAE;stroke:#000000;stroke-width:0.5;stroke-miterlimit:10;}
	.st13{opacity:0.27;fill:#F3B456;stroke:#000000;stroke-width:0.25;stroke-miterlimit:10;}
	.st14{opacity:0.36;fill:#946BAE;stroke:#000000;stroke-width:0.25;stroke-miterlimit:10;}
	.st15{opacity:0.4;fill:#AFDFDF;stroke:#000000;stroke-width:0.25;stroke-miterlimit:10;}
	.st16{opacity:0.41;fill:#F4ABAB;stroke:#000000;stroke-width:0.25;stroke-miterlimit:10;}
	.st17{opacity:0.4;fill:#AFDFDF;}
	.st18{fill:#AFDFDF;}
	.st19{fill:#946BAE;}
	.st20{fill:#AFDFDF;stroke:#000000;stroke-width:0.5;stroke-miterlimit:10;}
	.st21{opacity:0.33;fill:#F4ABAB;stroke:#000000;stroke-width:0.25;stroke-miterlimit:10;}
	.st22{opacity:0.51;fill:#AFDFDF;stroke:#000000;stroke-width:0.25;stroke-miterlimit:10;}
	.st23{opacity:0.45;fill:#946BAE;stroke:#000000;stroke-width:0.25;stroke-miterlimit:10;}
	.st24{opacity:0.28;fill:#946BAE;stroke:#000000;stroke-width:0.25;stroke-miterlimit:10;}
	.st25{fill:#FFFFFF;}
	.st26{fill:none;stroke:#000000;stroke-width:0.25;stroke-miterlimit:10;}
	.st27{fill:none;stroke:#AFDFDF;stroke-miterlimit:10;}
</style>
<g id="Back_Side">
	<path class="st0" d="M0.34,22.32c2.83-0.58,5.87-0.28,8.69,1.04C16,26.62,19,34.92,15.73,41.88c-2.78,5.94-9.23,9-15.39,7.74
		L0.34,22.32"/>
	<path class="st1" d="M61.66,0.04C63.14,4.43,63,9.37,60.88,13.9c-4.37,9.32-15.46,13.33-24.78,8.97
		C27.42,18.8,23.35,8.9,26.35,0.03L61.66,0.04"/>
	<path class="st2" d="M29.99,0.03c1.78,5.27,1.61,11.21-0.94,16.65C23.97,27.52,11.31,32.39,0.34,27.91V0.03H29.99
		c-0.01-0.04-0.03-0.08-0.04-0.11"/>
	<circle class="st3" cx="27.04" cy="32.6" r="16.24"/>
	<path class="st1" d="M0.27,43.16c4.64-6.6,13.49-9.13,21.05-5.59c8.48,3.97,12.13,14.07,8.16,22.54S15.42,72.25,6.94,68.28
		c-2.73-1.28-4.96-3.2-6.6-5.49L0.27,43.16z"/>
	<circle class="st4" cx="67.09" cy="59.31" r="11.19"/>
	<circle class="st5" cx="58.04" cy="90.32" r="25.52"/>
	<circle class="st6" cx="48.86" cy="67.69" r="10.17"/>
	<circle class="st0" cx="27.46" cy="75.24" r="13.93"/>
	<circle class="st7" cx="49.59" cy="48.85" r="13.1"/>
	<path class="st8" d="M89.3,131.82c-0.52-0.36-1.08-0.67-1.67-0.95c-5.96-2.79-13.06-0.22-15.86,5.74
		c-1.13,2.41-1.38,5.01-0.89,7.43l18.42,0"/>
	<circle class="st9" cx="33.97" cy="50.89" r="5.39"/>
	<path class="st10" d="M0.33,97.5c3.32-1.35,7.18-1.36,10.69,0.28c6.68,3.13,9.55,11.07,6.42,17.75c-3.03,6.46-10.57,9.36-17.11,6.7
		L0.33,97.5z"/>
	<path class="st4" d="M83.31,0.04c0.52,2.33,0.31,4.85-0.79,7.19c-2.62,5.6-9.28,8.01-14.88,5.39c-4.84-2.27-7.3-7.56-6.18-12.58
		L83.31,0.04"/>
	<path class="st1" d="M89.3,99.11c-2.26-0.26-4.51-0.88-6.69-1.9c-10.74-5.03-15.37-17.82-10.34-28.56
		c3.28-7,9.86-11.41,17.02-12.23"/>
	<path class="st2" d="M89.29,119.73c-7.66-4.33-10.8-13.89-7.01-21.99c1.56-3.32,4.05-5.91,7.03-7.58"/>
	<circle class="st4" cx="36.49" cy="12.75" r="5.39"/>
	<path class="st7" d="M9.16,144.04c2.78-2.4,4.54-5.95,4.54-9.92c0-7.24-5.87-13.1-13.1-13.1c-0.09,0-0.17,0-0.26,0v22.99h8.82"/>
	<path class="st11" d="M89.3,63.96c-3.54,0.92-7.41,0.66-10.98-1.01c-8.12-3.81-11.62-13.48-7.82-21.6
		c3.38-7.21,11.37-10.77,18.8-8.83"/>
	<circle class="st0" cx="63.25" cy="29.94" r="11.8"/>
	<circle class="st6" cx="65.33" cy="44.51" r="5.39"/>
	<path class="st12" d="M18.66,66.55c3.14,4.77,3.81,11.01,1.2,16.57c-3.51,7.5-11.8,11.23-19.54,9.27L0.26,59.45
		c3.69-0.95,7.71-0.67,11.43,1.07C14.63,61.9,16.99,64.02,18.66,66.55"/>
	<circle class="st9" cx="77.18" cy="114.49" r="5.39"/>
	<path class="st12" d="M38.57,143.99c-2.02-4.39-2.16-9.6,0.05-14.32c3.98-8.5,14.09-12.16,22.59-8.18
		c2.94,1.38,5.31,3.49,6.97,6.02c3.14,4.77,3.81,11.01,1.2,16.57L38.57,143.99"/>
	<circle class="st13" cx="23.65" cy="123.22" r="16.95"/>
	<circle class="st4" cx="23.65" cy="96.52" r="11.19"/>
	<path class="st7" d="M89.3,131.32c-1.56,1.29-3.56,2.07-5.75,2.07c-4.97,0-9-4.03-9-9s4.03-9,9-9c2.18,0,4.17,0.77,5.73,2.06"/>
	<path class="st0" d="M8.9,144.01c0.18-1.87,0.68-3.75,1.52-5.55c3.97-8.46,14.04-12.11,22.51-8.15c5.6,2.63,9.1,7.93,9.67,13.67
		L8.9,144.01z"/>
	<circle class="st6" cx="45.42" cy="116.55" r="5.39"/>
	<circle class="st13" cx="68.64" cy="117.84" r="3.8"/>
	<circle class="st14" cx="61.89" cy="118.71" r="2.94"/>
	<circle class="st15" cx="56.89" cy="118.17" r="2.06"/>
	<circle class="st16" cx="52.72" cy="117.75" r="1.91"/>
	<circle class="st14" cx="71.58" cy="123.81" r="2.94"/>
	<circle class="st15" cx="73.06" cy="128.71" r="2.06"/>
	<circle class="st16" cx="72.32" cy="132.55" r="1.78"/>
	<circle class="st15" cx="65.1" cy="121.41" r="1.18"/>
	<circle class="st15" cx="67.45" cy="122.83" r="1.18"/>
	<circle class="st16" cx="39.23" cy="111.38" r="2.45"/>
	<circle class="st15" cx="35.72" cy="107.78" r="2.48"/>
	<circle class="st14" cx="31.77" cy="106.54" r="1.47"/>
	<circle class="st14" cx="34.31" cy="103.83" r="1.47"/>
	<circle class="st14" cx="79.2" cy="107.63" r="1.47"/>
	<circle class="st16" cx="41.98" cy="122.7" r="1.38"/>
	<circle class="st15" cx="9.98" cy="94.54" r="2.48"/>
	<circle class="st14" cx="5.86" cy="94.71" r="1.47"/>
	<circle class="st13" cx="2.52" cy="94.81" r="1.7"/>
	<circle class="st15" cx="32.97" cy="59.19" r="2.75"/>
	<circle class="st14" cx="36.97" cy="57.32" r="1.47"/>
	<circle class="st14" cx="36.18" cy="62.19" r="1.47"/>
	<circle class="st13" cx="39.19" cy="59.78" r="1.7"/>
	<circle class="st16" cx="37.63" cy="64.17" r="0.81"/>
	<circle class="st16" cx="36.61" cy="59.78" r="0.81"/>
	<circle class="st15" cx="38.69" cy="62.53" r="0.99"/>
	<circle class="st15" cx="48.85" cy="26.81" r="2.75"/>
	<circle class="st14" cx="49.8" cy="31.04" r="1.47"/>
	<circle class="st14" cx="44.26" cy="26.44" r="1.81"/>
	<circle class="st14" cx="51.61" cy="24.22" r="0.97"/>
	<circle class="st16" cx="45.71" cy="28.76" r="0.81"/>
	<circle class="st13" cx="45.18" cy="31.27" r="1.7"/>
	<circle class="st13" cx="50.68" cy="34.39" r="1.23"/>
	<circle class="st16" cx="47.57" cy="30.23" r="0.81"/>
	<circle class="st15" cx="43.94" cy="29.06" r="0.65"/>
	<circle class="st15" cx="47.85" cy="33.5" r="1.54"/>
	<circle class="st14" cx="44.57" cy="34.12" r="1.14"/>
	<circle class="st16" cx="46.24" cy="35.2" r="0.81"/>
	<circle class="st13" cx="43.88" cy="35.95" r="0.67"/>
	<circle class="st14" cx="61.75" cy="16.33" r="1.81"/>
	<circle class="st16" cx="59.5" cy="17.81" r="0.81"/>
	<circle class="st15" cx="63.65" cy="12.75" r="2.05"/>
	<circle class="st13" cx="64.86" cy="15.85" r="1.21"/>
	<circle class="st16" cx="62.99" cy="10.04" r="0.65"/>
	<circle class="st16" cx="66.2" cy="14.2" r="0.81"/>
	<circle class="st14" cx="68.82" cy="15.01" r="1.81"/>
	<circle class="st13" cx="66.31" cy="12.75" r="0.47"/>
	<circle class="st15" cx="67.24" cy="13.22" r="0.47"/>
	<circle class="st15" cx="66.78" cy="17.24" r="1.05"/>
	<circle class="st13" cx="69.54" cy="18.29" r="1.43"/>
	<circle class="st16" cx="70.81" cy="19.93" r="0.65"/>
	<circle class="st16" cx="65.19" cy="17.57" r="0.51"/>
	<circle class="st13" cx="76.97" cy="29.79" r="1.7"/>
	<circle class="st14" cx="80.84" cy="31.23" r="1.14"/>
	<circle class="st15" cx="75.65" cy="33.78" r="1.05"/>
	<circle class="st16" cx="75.76" cy="27.56" r="0.7"/>
	<circle class="st16" cx="75.81" cy="31.88" r="0.65"/>
	<circle class="st16" cx="78.91" cy="31.23" r="0.65"/>
	<circle class="st14" cx="77.23" cy="32.53" r="0.84"/>
	<circle class="st13" cx="74.61" cy="35.01" r="0.45"/>
	<circle class="st15" cx="78.68" cy="32.53" r="0.61"/>
	<circle class="st13" cx="82.44" cy="31.54" r="0.45"/>
	<circle class="st16" cx="83.25" cy="31.23" r="0.36"/>
	<circle class="st15" cx="84.08" cy="31.44" r="0.33"/>
	<circle class="st15" cx="79.41" cy="30.03" r="0.61"/>
	<path class="st17" d="M89.3,131.82l0,12.22v-144L78.23,0.08c-4.53,3.06-7.51,8.24-7.51,14.12c0,9.4,7.62,17.03,17.03,17.03
		c0.52,0,1.04-0.02,1.55-0.07"/>
	<line class="st18" x1="89.29" y1="117.44" x2="89.3" y2="131.32"/>
	<circle class="st14" cx="84.84" cy="31.48" r="0.19"/>
	<circle class="st15" cx="70.12" cy="40.51" r="0.61"/>
	<circle class="st13" cx="70.77" cy="39.67" r="0.39"/>
	<circle class="st13" cx="67.74" cy="125.14" r="1"/>
	<line class="st19" x1="89.3" y1="90.16" x2="89.3" y2="119.73"/>
	<path class="st20" d="M9.16,144.04"/>
	<circle class="st16" cx="68.99" cy="126.75" r="0.85"/>
	<circle class="st14" cx="70.01" cy="128.32" r="0.92"/>
	<circle class="st15" cx="70.48" cy="129.95" r="0.64"/>
	<circle class="st14" cx="74.85" cy="131.28" r="0.92"/>
	<circle class="st15" cx="71.76" cy="134.97" r="0.64"/>
	<circle class="st13" cx="73.92" cy="120.42" r="1.12"/>
	<circle class="st14" cx="70.72" cy="113.57" r="0.92"/>
	<circle class="st13" cx="79.79" cy="105.4" r="0.67"/>
	<circle class="st13" cx="77.18" cy="108.29" r="0.51"/>
	<circle class="st13" cx="80.46" cy="109.29" r="0.51"/>
	<circle class="st16" cx="65.53" cy="123.2" r="0.61"/>
	<circle class="st14" cx="66.27" cy="124" r="0.36"/>
	<circle class="st14" cx="74.36" cy="121.89" r="0.36"/>
	<circle class="st15" cx="72.91" cy="118.97" r="0.46"/>
	<circle class="st16" cx="72.18" cy="120.39" r="0.5"/>
	<circle class="st13" cx="70.28" cy="126.98" r="0.36"/>
	<circle class="st13" cx="74.1" cy="126.33" r="0.42"/>
	<circle class="st16" cx="75.48" cy="129.85" r="0.5"/>
	<circle class="st13" cx="76.2" cy="130.71" r="0.42"/>
	<circle class="st13" cx="70.58" cy="131.13" r="0.35"/>
	<circle class="st14" cx="71.32" cy="130.62" r="0.25"/>
	<circle class="st13" cx="71.53" cy="136.17" r="0.35"/>
	<circle class="st13" cx="63.4" cy="121.9" r="0.38"/>
	<circle class="st14" cx="63.87" cy="122.47" r="0.25"/>
	<circle class="st14" cx="71.04" cy="127.23" r="0.25"/>
	<circle class="st15" cx="43.91" cy="122.45" r="0.45"/>
	<circle class="st15" cx="41.16" cy="124.56" r="0.49"/>
	<circle class="st15" cx="41.04" cy="120.91" r="0.49"/>
	<circle class="st16" cx="64.42" cy="115.97" r="0.57"/>
	<circle class="st16" cx="59.05" cy="116.62" r="0.57"/>
	<circle class="st16" cx="58.72" cy="119.93" r="0.37"/>
	<circle class="st13" cx="54.58" cy="119.28" r="0.38"/>
	<circle class="st13" cx="54.85" cy="116.39" r="0.46"/>
	<circle class="st14" cx="51.42" cy="115.65" r="0.36"/>
	<circle class="st14" cx="50.83" cy="119.45" r="0.4"/>
	<circle class="st13" cx="83.14" cy="114.76" r="0.42"/>
	<circle class="st21" cx="80.15" cy="104.13" r="0.42"/>
	<circle class="st15" cx="70.27" cy="143.63" r="0.34"/>
	<circle class="st16" cx="70.37" cy="142.9" r="0.2"/>
	<circle class="st13" cx="42.28" cy="111.33" r="0.52"/>
	<circle class="st13" cx="39.77" cy="114.33" r="0.5"/>
	<circle class="st16" cx="39.42" cy="115.48" r="0.49"/>
	<circle class="st22" cx="38.7" cy="114.4" r="0.28"/>
	<circle class="st23" cx="36.21" cy="110.89" r="0.49"/>
	<circle class="st13" cx="38.8" cy="108.28" r="0.5"/>
	<circle class="st16" cx="36.09" cy="104.71" r="0.43"/>
	<circle class="st13" cx="33.52" cy="105.69" r="0.39"/>
	<circle class="st15" cx="32.7" cy="108.28" r="0.38"/>
	<circle class="st15" cx="29.7" cy="106.76" r="0.38"/>
	<circle class="st15" cx="32.37" cy="104.56" r="0.38"/>
	<circle class="st16" cx="32.95" cy="105.1" r="0.24"/>
	<circle class="st16" cx="34.37" cy="101.72" r="0.43"/>
	<circle class="st13" cx="11.85" cy="92.06" r="0.52"/>
	<circle class="st24" cx="12.42" cy="92.9" r="0.28"/>
	<circle class="st21" cx="12.8" cy="92.06" r="0.3"/>
	<circle class="st15" cx="13.07" cy="91.27" r="0.3"/>
	<circle class="st13" cx="11.68" cy="97.21" r="0.52"/>
	<circle class="st21" cx="7.33" cy="96.01" r="0.4"/>
	<circle class="st13" cx="7.28" cy="93.29" r="0.29"/>
	<circle class="st21" cx="4.27" cy="93.49" r="0.31"/>
	<circle class="st21" cx="4.36" cy="95.9" r="0.4"/>
	<circle class="st14" cx="1.25" cy="93.11" r="0.29"/>
	<circle class="st21" cx="0.72" cy="93.63" r="0.29"/>
	<circle class="st15" cx="0.89" cy="96.47" r="0.46"/>
	<circle class="st21" cx="0.68" cy="95.64" r="0.21"/>
</g>
<g id="Me_1_">
	<path class="st25" d="M166.31,57.52l-1.16,4.02c-0.07,0.23-0.25,0.41-0.49,0.47c-1.56,0.39-7.48,1.73-9.92,0.35
		c0,0-1.4-0.39-2.26-4.9c-0.06-0.32,0.09-0.66,0.38-0.8c0.23-0.11,0.56-0.22,1.07-0.26c0,0,6.78-0.93,12.08,0.57
		C166.24,57.03,166.37,57.28,166.31,57.52z"/>
	<path class="st25" d="M172.84,57.52l1.16,4.02c0.07,0.23,0.25,0.41,0.49,0.47c1.56,0.39,7.48,1.73,9.92,0.35c0,0,1.4-0.39,2.26-4.9
		c0.06-0.32-0.09-0.66-0.37-0.8c-0.23-0.11-0.56-0.22-1.07-0.26c0,0-6.78-0.93-12.08,0.57C172.91,57.03,172.78,57.28,172.84,57.52z"
		/>
	<path class="st25" d="M167.89,57.55c-0.4,0.11-0.63,0.21-0.63,0.21l-1.52,4.66c0,0-6.39,2.85-11.98,0.55c0,0-1.83-2.48-2.69-4.65
		c0,0-1.1,0.31-2.17,0.14c0,0-0.86-1.17-0.9-1.83c0,0,0.48-0.65,2.73-0.51c0,0,8.51-3.2,17.29,0.09c0.04-0.01,0.08-0.03,0.08-0.03
		s1.63-0.6,3.06,0.01c8.77-3.26,17.26-0.08,17.26-0.08c2.24-0.13,2.73,0.51,2.73,0.51c-0.03,0.66-0.9,1.83-0.9,1.83
		c-1.07,0.17-2.17-0.14-2.17-0.14c-0.86,2.17-2.69,4.65-2.69,4.65c-5.59,2.31-11.98-0.55-11.98-0.55l-1.52-4.66
		c-0.22-0.09-0.44-0.16-0.66-0.22C169.81,57.16,168.59,57.36,167.89,57.55z"/>
	<path class="st25" d="M152.02,54.71c0.77-0.14,1.55-0.68,2.01-1.05c0.34-0.27,0.72-0.48,1.14-0.59c2.61-0.7,4.52,0.01,4.52,0.01
		c3.25,1.01,5.66,1.09,6.65,1.07c0.3-0.01,0.56-0.19,0.67-0.46l0.67-1.61c0.12-0.28-0.03-0.6-0.31-0.69
		c-1.54-0.5-6.18-1.83-10.34-1.19c-0.15,0.02-0.29,0.06-0.43,0.11c-0.88,0.33-4.21,1.68-5.34,3.82
		C151.25,54.11,151.42,54.82,152.02,54.71z"/>
	<path class="st25" d="M187.13,54.71c-0.77-0.14-1.55-0.68-2.01-1.05c-0.34-0.27-0.72-0.48-1.14-0.59c-2.61-0.7-4.52,0.01-4.52,0.01
		c-3.25,1.01-5.66,1.09-6.65,1.07c-0.3-0.01-0.56-0.19-0.67-0.46l-0.67-1.61c-0.12-0.28,0.03-0.6,0.31-0.69
		c1.54-0.5,6.18-1.83,10.34-1.19c0.15,0.02,0.29,0.06,0.43,0.11c0.88,0.33,4.21,1.68,5.34,3.82
		C187.9,54.11,187.73,54.82,187.13,54.71z"/>
	<path class="st25" d="M149.1,68.48c0,0-1.62,0.2-2.9-0.49c-1.28-0.69-1-2.11-1-2.11c-5.84-4.29-3.22-7.64-3.22-7.64
		c1.31-1.97,3.74-0.22,3.74-0.22s5.39,16.78,7.61,19.21c0,0,6.1,6.91,15.8,6.75h0.96c9.7,0.16,15.8-6.75,15.8-6.75
		c2.22-2.43,7.61-19.21,7.61-19.21s2.43-1.75,3.74,0.22c0,0,2.63,3.35-3.22,7.64c0,0,0.28,1.42-1,2.11c-1.28,0.69-2.9,0.49-2.9,0.49
		"/>
	<path class="st25" d="M166.06,64.08c0,0-1.3,3.12,0.26,3.49"/>
	<path class="st25" d="M173.09,64.08c0,0,1.3,3.12-0.26,3.49"/>
	<path class="st25" d="M172.55,67.79c0,0,3.48,1.73,4.59,3.55c0,0,1.17,3.05,1.02,5.46c7.33-3.26,12.72-10.58,13.82-19.38
		c-0.02-0.05-0.03-0.11-0.03-0.11s-1.78-6.48-1.72-8.65c0,0-4.27-8.93-4.22-11.42c-1.29-1.48-2.74-2.79-4.33-3.88"/>
	<path class="st25" d="M163.82,72.79c0.54-0.91,1.13-1.19,1.13-1.19c2.84-0.3,4.62-1.96,4.62-1.96s0.08-0.07,0.16-0.15
		c0.08,0.07,0.16,0.15,0.16,0.15s1.78,1.66,4.62,1.96c0,0,2.25,1.04,2,5.84c-2.19,0.76-4.52,1.18-6.94,1.18
		c-2.3,0-4.53-0.37-6.62-1.07C162.82,75.15,163.3,73.67,163.82,72.79z"/>
	<path class="st25" d="M171.83,50.44c0-0.04,0-0.07,0.01-0.11"/>
	<path class="st25" d="M167.6,67.79c0,0,2.27,0.77,4.07,0"/>
	<path class="st25" d="M157.79,33.15c4.17-2.47,12.63-0.31,12.63-0.31s8.13-0.68,11.22,0.5c0,0,9.93,2.67,17.71-6.73
		c0,0-2.97-0.48-3.43-1.04c0,0,0.51-0.18,0.51-0.46c0,0-3.39-1.05-3.62-2.08c0,0,1-0.44,1.18-0.87c0,0-6.75-0.59-6.88-1.82
		c0,0,0.44-0.18,0.59-0.62c0,0-3.34-0.77-4.57-2.11s-5.01-0.69-5.01-0.69s0.96-0.78,1.15-1.56c0,0,0.29-0.64-2.3,0.32
		s-5.7,0.8-5.7,0.8s-2.36-0.44-3.77,0.96c0,0,0.07-1.26-0.12-1.52c0,0-2.34,4.1-3.3,4.7c0,0,0.54-1.78,0-3.11
		c0,0-1.39,2.22-2.63,2.5c0,0-13.19,2.71-17.14,16.23c0,0-1.18-3.2-2-3.27c0,0,1.73,4.87,1.14,5.72c0,0-1.91-1.15-3.23,0.17
		c0,0,2.72-0.13,2.59,0.77c0,0-3.67,5.36,1.35,17.75"/>
	<path class="st25" d="M196.71,29.3c0,0,0.37,2.66-0.73,3.75c0,0,1.65-0.03,1.79-0.63c0,0,1.16,0.26-0.66,2.55
		c0,0,0.31,0.1,0.56,0.12c0.2,0.01,0.36,0.18,0.36,0.38c0,0.23-0.05,0.51-0.22,0.76c0,0,0.5,2.32-1.72,4.32c0,0-0.07,5.38-1.98,9.46
		c0,0,0.98,4.17,0.26,7.55"/>
	<path class="st25" d="M166.86,67.9c0,0-3.48,1.73-4.59,3.55c0,0-1.17,3.05-1.02,5.46c-7.49-3.22-13.01-10.65-14.09-19.6
		c0,0,1.78-6.48,1.72-8.65c0,0,4.21-8.81,4.22-11.37c1.4-1.62,3-3.03,4.76-4.19"/>
	<path class="st26" d="M166.31,57.52l-1.16,4.02c-0.07,0.23-0.25,0.41-0.49,0.47c-1.56,0.39-7.48,1.73-9.92,0.35
		c0,0-1.4-0.39-2.26-4.9c-0.06-0.32,0.09-0.66,0.38-0.8c0.23-0.11,0.56-0.22,1.07-0.26c0,0,6.78-0.93,12.08,0.57
		C166.24,57.03,166.37,57.28,166.31,57.52z"/>
	<path class="st26" d="M172.84,57.52l1.16,4.02c0.07,0.23,0.25,0.41,0.49,0.47c1.56,0.39,7.48,1.73,9.92,0.35c0,0,1.4-0.39,2.26-4.9
		c0.06-0.32-0.09-0.66-0.37-0.8c-0.23-0.11-0.56-0.22-1.07-0.26c0,0-6.78-0.93-12.08,0.57C172.91,57.03,172.78,57.28,172.84,57.52z"
		/>
	<path class="st26" d="M167.89,57.55c-0.4,0.11-0.63,0.21-0.63,0.21l-1.52,4.66c0,0-6.39,2.85-11.98,0.55c0,0-1.83-2.48-2.69-4.65
		c0,0-1.1,0.31-2.17,0.14c0,0-0.86-1.17-0.9-1.83c0,0,0.48-0.65,2.73-0.51c0,0,8.51-3.2,17.29,0.09c0.04-0.01,0.08-0.03,0.08-0.03
		s1.63-0.6,3.06,0.01c8.77-3.26,17.26-0.08,17.26-0.08c2.24-0.13,2.73,0.51,2.73,0.51c-0.03,0.66-0.9,1.83-0.9,1.83
		c-1.07,0.17-2.17-0.14-2.17-0.14c-0.86,2.17-2.69,4.65-2.69,4.65c-5.59,2.31-11.98-0.55-11.98-0.55l-1.52-4.66
		c-0.22-0.09-0.44-0.16-0.66-0.22C169.81,57.16,168.59,57.36,167.89,57.55z"/>
	<path class="st26" d="M152.02,54.71c0.77-0.14,1.55-0.68,2.01-1.05c0.34-0.27,0.72-0.48,1.14-0.59c2.61-0.7,4.52,0.01,4.52,0.01
		c3.25,1.01,5.66,1.09,6.65,1.07c0.3-0.01,0.56-0.19,0.67-0.46l0.67-1.61c0.12-0.28-0.03-0.6-0.31-0.69
		c-1.54-0.5-6.18-1.83-10.34-1.19c-0.15,0.02-0.29,0.06-0.43,0.11c-0.88,0.33-4.21,1.68-5.34,3.82
		C151.25,54.11,151.42,54.82,152.02,54.71z"/>
	<path class="st26" d="M187.13,54.71c-0.77-0.14-1.55-0.68-2.01-1.05c-0.34-0.27-0.72-0.48-1.14-0.59c-2.61-0.7-4.52,0.01-4.52,0.01
		c-3.25,1.01-5.66,1.09-6.65,1.07c-0.3-0.01-0.56-0.19-0.67-0.46l-0.67-1.61c-0.12-0.28,0.03-0.6,0.31-0.69
		c1.54-0.5,6.18-1.83,10.34-1.19c0.15,0.02,0.29,0.06,0.43,0.11c0.88,0.33,4.21,1.68,5.34,3.82
		C187.9,54.11,187.73,54.82,187.13,54.71z"/>
	<path class="st26" d="M149.1,68.48c0,0-1.62,0.2-2.9-0.49c-1.28-0.69-1-2.11-1-2.11c-5.84-4.29-3.22-7.64-3.22-7.64
		c1.31-1.97,3.74-0.22,3.74-0.22s5.39,16.78,7.61,19.21c0,0,6.1,6.91,15.8,6.75h0.96c9.7,0.16,15.8-6.75,15.8-6.75
		c2.22-2.43,7.61-19.21,7.61-19.21s2.43-1.75,3.74,0.22c0,0,2.63,3.35-3.22,7.64c0,0,0.28,1.42-1,2.11c-1.28,0.69-2.9,0.49-2.9,0.49
		"/>
	<path class="st26" d="M166.06,64.08c0,0-1.3,3.12,0.26,3.49"/>
	<path class="st26" d="M173.09,64.08c0,0,1.3,3.12-0.26,3.49"/>
	<path class="st26" d="M172.55,67.79c0,0,3.48,1.73,4.59,3.55c0,0,1.17,3.05,1.02,5.46c7.33-3.26,12.72-10.58,13.82-19.38
		c-0.02-0.05-0.03-0.11-0.03-0.11s-1.78-6.48-1.72-8.65c0,0-4.27-8.93-4.22-11.42c-1.29-1.48-2.74-2.79-4.33-3.88"/>
	<path class="st26" d="M163.82,72.79c0.54-0.91,1.13-1.19,1.13-1.19c2.84-0.3,4.62-1.96,4.62-1.96s0.08-0.07,0.16-0.15
		c0.08,0.07,0.16,0.15,0.16,0.15s1.78,1.66,4.62,1.96c0,0,2.25,1.04,2,5.84c-2.19,0.76-4.52,1.18-6.94,1.18
		c-2.3,0-4.53-0.37-6.62-1.07C162.82,75.15,163.3,73.67,163.82,72.79z"/>
	<path class="st26" d="M171.83,50.44c0-0.04,0-0.07,0.01-0.11"/>
	<path class="st26" d="M167.6,67.79c0,0,2.27,0.77,4.07,0"/>
	<path class="st26" d="M157.79,33.15c4.17-2.47,12.63-0.31,12.63-0.31s8.13-0.68,11.22,0.5c0,0,9.93,2.67,17.71-6.73
		c0,0-2.97-0.48-3.43-1.04c0,0,0.51-0.18,0.51-0.46c0,0-3.39-1.05-3.62-2.08c0,0,1-0.44,1.18-0.87c0,0-6.75-0.59-6.88-1.82
		c0,0,0.44-0.18,0.59-0.62c0,0-3.34-0.77-4.57-2.11s-5.01-0.69-5.01-0.69s0.96-0.78,1.15-1.56c0,0,0.29-0.64-2.3,0.32
		s-5.7,0.8-5.7,0.8s-2.36-0.44-3.77,0.96c0,0,0.07-1.26-0.12-1.52c0,0-2.34,4.1-3.3,4.7c0,0,0.54-1.78,0-3.11
		c0,0-1.39,2.22-2.63,2.5c0,0-13.19,2.71-17.14,16.23c0,0-1.18-3.2-2-3.27c0,0,1.73,4.87,1.14,5.72c0,0-1.91-1.15-3.23,0.17
		c0,0,2.72-0.13,2.59,0.77c0,0-3.67,5.36,1.35,17.75"/>
	<path class="st26" d="M196.71,29.3c0,0,0.37,2.66-0.73,3.75c0,0,1.65-0.03,1.79-0.63c0,0,1.16,0.26-0.66,2.55
		c0,0,0.31,0.1,0.56,0.12c0.2,0.01,0.36,0.18,0.36,0.38c0,0.23-0.05,0.51-0.22,0.76c0,0,0.5,2.32-1.72,4.32c0,0-0.07,5.38-1.98,9.46
		c0,0,0.98,4.17,0.26,7.55"/>
	<path class="st26" d="M166.86,67.9c0,0-3.48,1.73-4.59,3.55c0,0-1.17,3.05-1.02,5.46c-7.49-3.22-13.01-10.65-14.09-19.6
		c0,0,1.78-6.48,1.72-8.65c0,0,4.21-8.81,4.22-11.37c1.4-1.62,3-3.03,4.76-4.19"/>
</g>
<g id="LinkedIn_1_">
	<path class="st25" d="M207.52,113.02h3.16c0.6,0,1.08,0.48,1.08,1.08v14c0,0.6-0.48,1.08-1.08,1.08h-3.16
		c-0.6,0-1.08-0.48-1.08-1.08v-14C206.44,113.5,206.92,113.02,207.52,113.02z"/>
	<path class="st25" d="M231.27,120.46v8.12c0,0.33-0.27,0.6-0.6,0.6h-4.17c-0.33,0-0.6-0.27-0.6-0.6v-9.11
		c0-0.1-0.01-0.19-0.03-0.29c-0.11-0.56-0.63-2.31-2.8-2.33c-2.04-0.02-2.68,1.56-2.85,2.22c-0.04,0.16-0.06,0.32-0.06,0.48v9.03
		c0,0.33-0.27,0.6-0.6,0.6h-4.08c-0.33,0-0.6-0.27-0.6-0.6v-14.97c0-0.33,0.27-0.6,0.6-0.6h4.05c0.33,0,0.6,0.27,0.6,0.6l0,0
		c0,0.52,0.61,0.78,0.99,0.44c0.91-0.81,2.43-1.71,4.58-1.42c3.71,0.49,4.72,3.03,4.72,3.03S231.13,116.99,231.27,120.46z"/>
	<circle class="st25" cx="209.1" cy="108.01" r="2.8"/>
	<path class="st27" d="M207.52,112.86h3.16c0.6,0,1.08,0.48,1.08,1.08v14c0,0.6-0.48,1.08-1.08,1.08h-3.16
		c-0.6,0-1.08-0.48-1.08-1.08v-14C206.44,113.35,206.92,112.86,207.52,112.86z"/>
	<path class="st27" d="M231.27,120.31v8.12c0,0.33-0.27,0.6-0.6,0.6h-4.17c-0.33,0-0.6-0.27-0.6-0.6v-9.11
		c0-0.1-0.01-0.19-0.03-0.29c-0.11-0.56-0.63-2.31-2.8-2.33c-2.04-0.02-2.68,1.56-2.85,2.22c-0.04,0.16-0.06,0.32-0.06,0.48v9.03
		c0,0.33-0.27,0.6-0.6,0.6h-4.08c-0.33,0-0.6-0.27-0.6-0.6v-14.97c0-0.33,0.27-0.6,0.6-0.6h4.05c0.33,0,0.6,0.27,0.6,0.6v0
		c0,0.52,0.61,0.78,0.99,0.44c0.91-0.81,2.43-1.71,4.58-1.42c3.71,0.49,4.72,3.03,4.72,3.03S231.13,116.84,231.27,120.31z"/>
	<circle class="st27" cx="209.1" cy="107.86" r="2.8"/>
</g>
<g id="Insta">
	<path class="st25" d="M176.47,133.11h-10.84c-5.5,0-9.95-4.46-9.95-9.95v-10.84c0-5.5,4.46-9.95,9.95-9.95h10.84
		c5.5,0,9.95,4.46,9.95,9.95v10.84C186.43,128.65,181.97,133.11,176.47,133.11z"/>
	<circle class="st27" cx="171.05" cy="117.86" r="6.53"/>
	<circle class="st27" cx="178.84" cy="110.04" r="1.73"/>
	<circle class="st27" cx="171.05" cy="117.86" r="4.5"/>
	<path class="st27" d="M176.47,133.11h-10.84c-5.5,0-9.95-4.46-9.95-9.95v-10.84c0-5.5,4.46-9.95,9.95-9.95h10.84
		c5.5,0,9.95,4.46,9.95,9.95v10.84C186.43,128.65,181.97,133.11,176.47,133.11z"/>
</g>
<g id="Mail_1_">
	<path class="st25" d="M110.54,113.2v9.22c0,2.1,1.71,3.81,3.81,3.81h18.52c2.1,0,3.81-1.71,3.81-3.81v-9.22
		c0-2.1-1.71-3.81-3.81-3.81h-18.52C112.24,109.39,110.54,111.1,110.54,113.2z"/>
	<path class="st27" d="M110.54,113.15v9.22c0,2.1,1.71,3.81,3.81,3.81h18.52c2.1,0,3.81-1.71,3.81-3.81v-9.22
		c0-2.1-1.71-3.81-3.81-3.81h-18.52C112.24,109.34,110.54,111.05,110.54,113.15z"/>
	<polyline class="st27" points="111.26,110.22 123.61,120.31 135.81,110.7 	"/>
	<line class="st27" x1="111.26" y1="124.85" x2="120.56" y2="117.82"/>
	<line class="st27" x1="135.81" y1="124.85" x2="126.96" y2="117.82"/>
</g>
</svg>
