<?xml version="1.0" encoding="utf-8"?>
<!-- Generator: Adobe Illustrator 24.0.3, SVG Export Plug-In . SVG Version: 6.00 Build 0)  -->
<svg version="1.1" id="Layer_1" xmlns="http://www.w3.org/2000/svg" xmlns:xlink="http://www.w3.org/1999/xlink" x="0px" y="0px"
	 viewBox="0 0 612 792" style="enable-background:new 0 0 612 792;" xml:space="preserve">
<style type="text/css">
	.st0{opacity:0.35;fill:#F4ABAB;}
	.st1{opacity:0.47;fill:#F3B456;}
	.st2{opacity:0.46;fill:#946BAE;}
	.st3{opacity:0.85;fill:#E8C5DE;}
	.st4{opacity:0.61;fill:#F4ABAB;}
	.st5{opacity:0.51;fill:#AFDFDF;}
	.st6{opacity:0.57;fill:#946BAE;}
	.st7{opacity:0.4;fill:#AFDFDF;}
	.st8{opacity:0.3;fill:#F3B456;}
	.st9{opacity:0.41;fill:#F4ABAB;}
	.st10{opacity:0.77;fill:#E8C5DE;}
	.st11{opacity:0.71;fill:#E8C5DE;}
	.st12{opacity:0.28;fill:#946BAE;}
	.st13{opacity:0.27;fill:#F3B456;}
	.st14{opacity:0.36;fill:#946BAE;}
	.st15{fill:#AFDFDF;}
	.st16{fill:#946BAE;}
	.st17{opacity:0.33;fill:#F4ABAB;}
	.st18{opacity:0.45;fill:#946BAE;}
</style>
<path class="st0" d="M61.27,457.39c7.78-1.59,16.12-0.78,23.86,2.85c19.14,8.96,27.38,31.74,18.42,50.88
	c-7.65,16.33-25.36,24.73-42.28,21.27L61.27,457.39"/>
<path class="st1" d="M229.7,396.18c4.07,12.05,3.67,25.63-2.15,38.06c-11.99,25.6-42.46,36.62-68.06,24.63
	c-23.84-11.17-35.04-38.36-26.78-62.72h96.99"/>
<path class="st2" d="M142.7,396.15c4.89,14.48,4.41,30.8-2.58,45.73c-13.95,29.78-48.74,43.15-78.85,30.86v-76.59H142.7
	c-0.04-0.1-0.07-0.21-0.11-0.31"/>
<circle class="st3" cx="134.6" cy="485.62" r="44.61"/>
<path class="st1" d="M61.08,514.64c12.75-18.14,37.05-25.07,57.83-15.34c23.29,10.91,33.32,38.64,22.41,61.93
	c-10.91,23.29-38.64,33.32-61.93,22.41c-7.51-3.52-13.64-8.78-18.13-15.08L61.08,514.64z"/>
<circle class="st4" cx="244.62" cy="558.99" r="30.74"/>
<circle class="st5" cx="219.76" cy="644.15" r="70.09"/>
<circle class="st6" cx="194.54" cy="582.01" r="27.94"/>
<circle class="st0" cx="135.76" cy="602.73" r="38.26"/>
<circle class="st7" cx="196.54" cy="530.24" r="35.99"/>
<path class="st8" d="M305.63,758.16c-1.43-0.98-2.96-1.85-4.58-2.61c-16.38-7.68-35.89-0.62-43.56,15.77
	c-3.1,6.62-3.8,13.75-2.44,20.4l50.58,0"/>
<circle class="st9" cx="153.63" cy="535.86" r="14.81"/>
<path class="st10" d="M61.24,663.89c9.13-3.71,19.72-3.74,29.35,0.77c18.34,8.59,26.24,30.42,17.65,48.76
	c-8.32,17.75-29.04,25.72-47,18.42L61.24,663.89z"/>
<path class="st4" d="M289.16,396.18c1.44,6.41,0.84,13.34-2.16,19.75c-7.2,15.37-25.5,22-40.88,14.79
	c-13.3-6.23-20.05-20.78-16.96-34.54L289.16,396.18"/>
<path class="st1" d="M305.63,668.3c-6.2-0.71-12.4-2.42-18.36-5.21c-29.5-13.82-42.21-48.94-28.39-78.44
	c9.01-19.24,27.09-31.34,46.76-33.59"/>
<path class="st2" d="M305.58,724.96c-21.03-11.89-29.67-38.16-19.25-60.4c4.28-9.13,11.14-16.23,19.3-20.83"/>
<circle class="st4" cx="160.55" cy="431.09" r="14.81"/>
<path class="st7" d="M85.48,791.72c7.63-6.6,12.46-16.35,12.46-27.24c0-19.88-16.11-35.99-35.99-35.99c-0.24,0-0.47,0-0.71,0.01
	v63.15h24.24"/>
<path class="st11" d="M305.63,571.75c-9.72,2.54-20.36,1.82-30.17-2.77c-22.31-10.45-31.93-37.01-21.47-59.33
	c9.27-19.8,31.23-29.6,51.65-24.25"/>
<circle class="st0" cx="234.07" cy="478.32" r="32.41"/>
<circle class="st6" cx="239.78" cy="518.34" r="14.81"/>
<path class="st12" d="M111.58,578.87c8.63,13.11,10.45,30.26,3.31,45.51c-9.65,20.59-32.42,30.85-53.68,25.46l-0.18-90.45
	c10.13-2.61,21.19-1.84,31.4,2.94C100.52,566.11,107.01,571.92,111.58,578.87"/>
<circle class="st9" cx="272.34" cy="710.56" r="14.81"/>
<path class="st12" d="M166.29,791.58c-5.55-12.05-5.94-26.37,0.13-39.33c10.93-23.34,38.72-33.39,62.05-22.46
	c8.09,3.79,14.58,9.6,19.15,16.55c8.63,13.11,10.45,30.26,3.31,45.51L166.29,791.58"/>
<circle class="st13" cx="125.29" cy="734.53" r="46.57"/>
<circle class="st4" cx="125.29" cy="661.18" r="30.74"/>
<path class="st7" d="M305.63,756.79c-4.28,3.55-9.78,5.69-15.78,5.69c-13.66,0-24.73-11.07-24.73-24.73s11.07-24.73,24.73-24.73
	c5.98,0,11.46,2.12,15.73,5.65"/>
<path class="st0" d="M84.79,791.64c0.5-5.15,1.87-10.3,4.19-15.25c10.89-23.25,38.57-33.27,61.82-22.38
	c15.39,7.21,24.99,21.78,26.55,37.56L84.79,791.64z"/>
<circle class="st6" cx="185.08" cy="716.22" r="14.81"/>
<circle class="st13" cx="248.87" cy="719.77" r="10.45"/>
<circle class="st14" cx="230.34" cy="722.14" r="8.08"/>
<circle class="st7" cx="216.59" cy="720.67" r="5.67"/>
<circle class="st9" cx="205.13" cy="719.5" r="5.23"/>
<circle class="st14" cx="256.95" cy="736.16" r="8.08"/>
<circle class="st7" cx="261.01" cy="749.62" r="5.67"/>
<circle class="st9" cx="258.98" cy="760.17" r="4.89"/>
<circle class="st7" cx="239.14" cy="729.57" r="3.23"/>
<circle class="st7" cx="245.6" cy="733.45" r="3.23"/>
<circle class="st9" cx="168.1" cy="702.02" r="6.73"/>
<circle class="st7" cx="158.43" cy="692.12" r="6.81"/>
<circle class="st14" cx="147.58" cy="688.71" r="4.04"/>
<circle class="st14" cx="154.59" cy="681.27" r="4.04"/>
<circle class="st14" cx="277.87" cy="691.71" r="4.04"/>
<circle class="st9" cx="175.65" cy="733.1" r="3.78"/>
<circle class="st7" cx="87.74" cy="655.76" r="6.81"/>
<circle class="st14" cx="76.43" cy="656.22" r="4.04"/>
<circle class="st13" cx="67.24" cy="656.51" r="4.68"/>
<circle class="st7" cx="150.89" cy="558.67" r="7.57"/>
<circle class="st14" cx="161.88" cy="553.53" r="4.04"/>
<circle class="st14" cx="159.71" cy="566.89" r="4.04"/>
<circle class="st13" cx="167.98" cy="560.28" r="4.68"/>
<circle class="st9" cx="163.69" cy="572.34" r="2.23"/>
<circle class="st9" cx="160.88" cy="560.28" r="2.23"/>
<circle class="st7" cx="166.59" cy="567.84" r="2.72"/>
<circle class="st7" cx="194.52" cy="469.73" r="7.57"/>
<circle class="st14" cx="197.13" cy="481.33" r="4.04"/>
<circle class="st14" cx="181.91" cy="468.69" r="4.97"/>
<circle class="st14" cx="202.08" cy="462.6" r="2.65"/>
<circle class="st9" cx="185.9" cy="475.06" r="2.23"/>
<circle class="st13" cx="184.44" cy="481.97" r="4.68"/>
<circle class="st13" cx="199.53" cy="490.54" r="3.37"/>
<circle class="st9" cx="190.99" cy="479.1" r="2.23"/>
<circle class="st7" cx="181.02" cy="475.89" r="1.8"/>
<circle class="st7" cx="191.75" cy="488.09" r="4.24"/>
<circle class="st14" cx="182.76" cy="489.78" r="3.13"/>
<circle class="st9" cx="187.34" cy="492.77" r="2.23"/>
<circle class="st13" cx="180.86" cy="494.83" r="1.85"/>
<circle class="st14" cx="229.94" cy="440.93" r="4.97"/>
<circle class="st9" cx="223.76" cy="444.98" r="2.23"/>
<circle class="st7" cx="235.16" cy="431.09" r="5.63"/>
<circle class="st13" cx="238.49" cy="439.61" r="3.33"/>
<circle class="st9" cx="233.36" cy="423.66" r="1.8"/>
<circle class="st9" cx="242.16" cy="435.08" r="2.23"/>
<circle class="st14" cx="249.36" cy="437.31" r="4.97"/>
<circle class="st13" cx="242.47" cy="431.09" r="1.28"/>
<circle class="st7" cx="245.03" cy="432.37" r="1.28"/>
<circle class="st7" cx="243.75" cy="443.44" r="2.87"/>
<circle class="st13" cx="251.33" cy="446.31" r="3.93"/>
<circle class="st9" cx="254.83" cy="450.82" r="1.79"/>
<circle class="st9" cx="239.4" cy="444.34" r="1.39"/>
<circle class="st13" cx="271.76" cy="477.89" r="4.68"/>
<circle class="st14" cx="282.39" cy="481.85" r="3.14"/>
<circle class="st7" cx="268.13" cy="488.86" r="2.87"/>
<circle class="st9" cx="268.41" cy="471.77" r="1.93"/>
<circle class="st9" cx="268.55" cy="483.64" r="1.79"/>
<circle class="st9" cx="277.07" cy="481.85" r="1.79"/>
<circle class="st14" cx="272.46" cy="485.44" r="2.31"/>
<circle class="st13" cx="265.26" cy="492.25" r="1.25"/>
<circle class="st7" cx="276.44" cy="485.44" r="1.67"/>
<circle class="st13" cx="286.77" cy="482.71" r="1.25"/>
<circle class="st9" cx="289" cy="481.85" r="0.98"/>
<circle class="st7" cx="291.28" cy="482.42" r="0.9"/>
<circle class="st7" cx="278.44" cy="478.55" r="1.67"/>
<path class="st7" d="M305.63,758.16l0,33.56V396.18l-30.42,0.12c-12.44,8.4-20.62,22.64-20.62,38.78
	c0,25.83,20.94,46.77,46.77,46.77c1.44,0,2.86-0.07,4.27-0.19"/>
<line class="st15" x1="305.58" y1="718.66" x2="305.63" y2="756.79"/>
<circle class="st14" cx="293.37" cy="482.54" r="0.52"/>
<circle class="st7" cx="252.92" cy="507.35" r="1.67"/>
<circle class="st13" cx="254.73" cy="505.03" r="1.06"/>
<circle class="st13" cx="246.4" cy="739.82" r="2.75"/>
<line class="st16" x1="305.63" y1="643.73" x2="305.63" y2="724.96"/>
<path class="st15" d="M85.48,791.72"/>
<circle class="st9" cx="249.84" cy="744.24" r="2.32"/>
<circle class="st14" cx="252.62" cy="748.54" r="2.54"/>
<circle class="st7" cx="253.92" cy="753.04" r="1.76"/>
<circle class="st14" cx="265.92" cy="756.68" r="2.54"/>
<circle class="st7" cx="257.43" cy="766.82" r="1.76"/>
<circle class="st13" cx="263.38" cy="726.84" r="3.08"/>
<circle class="st14" cx="254.59" cy="708.02" r="2.54"/>
<circle class="st13" cx="279.5" cy="685.58" r="1.85"/>
<circle class="st13" cx="272.34" cy="693.52" r="1.4"/>
<circle class="st13" cx="281.34" cy="696.27" r="1.4"/>
<circle class="st9" cx="240.33" cy="734.47" r="1.68"/>
<circle class="st14" cx="242.37" cy="736.69" r="0.98"/>
<circle class="st14" cx="264.58" cy="730.89" r="0.98"/>
<circle class="st7" cx="260.59" cy="722.86" r="1.27"/>
<circle class="st9" cx="258.59" cy="726.76" r="1.38"/>
<circle class="st13" cx="253.38" cy="744.86" r="0.98"/>
<circle class="st13" cx="263.87" cy="743.07" r="1.16"/>
<circle class="st9" cx="267.67" cy="752.74" r="1.37"/>
<circle class="st13" cx="269.63" cy="755.11" r="1.16"/>
<circle class="st13" cx="254.19" cy="756.27" r="0.97"/>
<circle class="st14" cx="256.23" cy="754.86" r="0.69"/>
<circle class="st13" cx="256.8" cy="770.11" r="0.97"/>
<circle class="st13" cx="234.48" cy="730.91" r="1.04"/>
<circle class="st14" cx="235.76" cy="732.49" r="0.7"/>
<circle class="st14" cx="255.47" cy="745.56" r="0.7"/>
<circle class="st7" cx="180.95" cy="732.43" r="1.24"/>
<circle class="st7" cx="173.39" cy="738.23" r="1.34"/>
<circle class="st7" cx="173.06" cy="728.19" r="1.34"/>
<circle class="st9" cx="237.28" cy="714.63" r="1.56"/>
<circle class="st9" cx="222.53" cy="716.41" r="1.56"/>
<circle class="st9" cx="221.63" cy="725.51" r="1.02"/>
<circle class="st13" cx="210.25" cy="723.73" r="1.04"/>
<circle class="st13" cx="211" cy="715.78" r="1.25"/>
<circle class="st14" cx="201.56" cy="713.73" r="0.98"/>
<circle class="st14" cx="199.95" cy="724.17" r="1.11"/>
<circle class="st13" cx="288.69" cy="711.3" r="1.16"/>
<circle class="st17" cx="280.48" cy="682.11" r="1.16"/>
<circle class="st7" cx="253.34" cy="790.6" r="0.93"/>
<circle class="st9" cx="253.61" cy="788.6" r="0.56"/>
<circle class="st13" cx="176.46" cy="701.86" r="1.43"/>
<circle class="st13" cx="169.58" cy="710.13" r="1.38"/>
<circle class="st9" cx="168.6" cy="713.29" r="1.36"/>
<circle class="st5" cx="166.62" cy="710.3" r="0.78"/>
<circle class="st18" cx="159.79" cy="700.66" r="1.36"/>
<circle class="st13" cx="166.92" cy="693.5" r="1.38"/>
<circle class="st9" cx="159.47" cy="683.71" r="1.17"/>
<circle class="st13" cx="152.41" cy="686.38" r="1.07"/>
<circle class="st7" cx="150.15" cy="693.5" r="1.05"/>
<circle class="st7" cx="141.92" cy="689.33" r="1.05"/>
<circle class="st7" cx="149.23" cy="683.28" r="1.05"/>
<circle class="st9" cx="150.84" cy="684.77" r="0.65"/>
<circle class="st9" cx="154.74" cy="675.49" r="1.17"/>
<circle class="st13" cx="92.88" cy="648.95" r="1.43"/>
<circle class="st12" cx="94.43" cy="651.26" r="0.78"/>
<circle class="st17" cx="95.49" cy="648.95" r="0.83"/>
<circle class="st7" cx="96.24" cy="646.76" r="0.81"/>
<circle class="st13" cx="92.4" cy="663.11" r="1.43"/>
<circle class="st17" cx="80.47" cy="659.81" r="1.1"/>
<circle class="st13" cx="80.31" cy="652.33" r="0.8"/>
<circle class="st17" cx="72.05" cy="652.88" r="0.85"/>
<circle class="st17" cx="72.3" cy="659.5" r="1.1"/>
<circle class="st14" cx="63.77" cy="651.83" r="0.8"/>
<circle class="st17" cx="62.31" cy="653.26" r="0.8"/>
<circle class="st7" cx="62.78" cy="661.07" r="1.27"/>
<circle class="st17" cx="62.19" cy="658.78" r="0.59"/>
<path class="st0" d="M61.24,334.92c7.78,1.59,16.12,0.78,23.86-2.85c19.14-8.96,27.38-31.74,18.42-50.88
	c-7.65-16.33-25.36-24.73-42.28-21.27L61.24,334.92"/>
<path class="st1" d="M229.67,396.13c4.07-12.05,3.67-25.63-2.15-38.06c-11.99-25.6-42.46-36.62-68.06-24.63
	c-23.84,11.17-35.04,38.36-26.78,62.72h96.99"/>
<path class="st2" d="M142.67,396.16c4.89-14.48,4.41-30.8-2.58-45.73c-13.95-29.78-48.74-43.15-78.85-30.86v76.59H142.67
	c-0.04,0.1-0.07,0.21-0.11,0.31"/>
<circle class="st3" cx="134.57" cy="306.69" r="44.61"/>
<path class="st1" d="M61.05,277.67c12.75,18.14,37.05,25.07,57.83,15.34c23.29-10.91,33.32-38.64,22.41-61.93
	c-10.91-23.29-38.64-33.32-61.93-22.41c-7.51,3.52-13.64,8.78-18.13,15.08L61.05,277.67z"/>
<circle class="st4" cx="244.59" cy="233.32" r="30.74"/>
<circle class="st5" cx="219.73" cy="148.16" r="70.09"/>
<circle class="st6" cx="194.51" cy="210.3" r="27.94"/>
<circle class="st0" cx="135.73" cy="189.58" r="38.26"/>
<circle class="st7" cx="196.51" cy="262.07" r="35.99"/>
<path class="st8" d="M305.6,34.15c-1.43,0.98-2.96,1.85-4.58,2.61c-16.38,7.68-35.89,0.62-43.56-15.77
	c-3.1-6.62-3.8-13.75-2.44-20.4l50.58,0"/>
<circle class="st9" cx="153.6" cy="256.45" r="14.81"/>
<path class="st10" d="M61.21,128.42c9.13,3.71,19.72,3.74,29.35-0.77c18.34-8.59,26.24-30.42,17.65-48.76
	c-8.32-17.75-29.04-25.72-47-18.42L61.21,128.42z"/>
<path class="st4" d="M289.13,396.13c1.44-6.41,0.84-13.34-2.16-19.75c-7.2-15.37-25.5-22-40.88-14.79
	c-13.3,6.23-20.05,20.78-16.96,34.54L289.13,396.13"/>
<path class="st1" d="M305.6,124.01c-6.2,0.71-12.4,2.42-18.36,5.21c-29.5,13.82-42.21,48.94-28.39,78.44
	c9.01,19.24,27.09,31.34,46.76,33.59"/>
<path class="st2" d="M305.55,67.36c-21.03,11.89-29.67,38.16-19.25,60.4c4.28,9.13,11.14,16.23,19.3,20.83"/>
<circle class="st4" cx="160.52" cy="361.22" r="14.81"/>
<path class="st7" d="M85.45,0.59c7.63,6.6,12.46,16.35,12.46,27.24c0,19.88-16.11,35.99-35.99,35.99c-0.24,0-0.47,0-0.71-0.01V0.67
	h24.24"/>
<path class="st11" d="M305.6,220.56c-9.72-2.54-20.36-1.82-30.17,2.77c-22.31,10.45-31.93,37.01-21.47,59.33
	c9.27,19.8,31.23,29.6,51.65,24.25"/>
<circle class="st0" cx="234.04" cy="313.99" r="32.41"/>
<circle class="st6" cx="239.75" cy="273.97" r="14.81"/>
<path class="st12" d="M111.55,213.44c8.63-13.11,10.45-30.26,3.31-45.51c-9.65-20.59-32.42-30.85-53.68-25.46L61,232.93
	c10.13,2.61,21.19,1.84,31.4-2.94C100.49,226.2,106.98,220.39,111.55,213.44"/>
<circle class="st9" cx="272.31" cy="81.75" r="14.81"/>
<path class="st12" d="M166.26,0.73c-5.55,12.05-5.94,26.37,0.13,39.33c10.93,23.34,38.72,33.39,62.05,22.46
	c8.09-3.79,14.58-9.6,19.15-16.55c8.63-13.11,10.45-30.26,3.31-45.51L166.26,0.73"/>
<circle class="st13" cx="125.26" cy="57.78" r="46.57"/>
<circle class="st4" cx="125.26" cy="131.13" r="30.74"/>
<path class="st7" d="M305.6,35.52c-4.28-3.55-9.78-5.69-15.78-5.69c-13.66,0-24.73,11.07-24.73,24.73s11.07,24.73,24.73,24.73
	c5.98,0,11.46-2.12,15.73-5.65"/>
<path class="st0" d="M84.76,0.67c0.5,5.15,1.87,10.3,4.19,15.25c10.89,23.25,38.57,33.27,61.82,22.38
	c15.39-7.21,24.99-21.78,26.55-37.56L84.76,0.67z"/>
<circle class="st6" cx="185.05" cy="76.09" r="14.81"/>
<circle class="st13" cx="248.84" cy="72.54" r="10.45"/>
<circle class="st14" cx="230.31" cy="70.17" r="8.08"/>
<circle class="st7" cx="216.56" cy="71.64" r="5.67"/>
<circle class="st9" cx="205.1" cy="72.81" r="5.23"/>
<circle class="st14" cx="256.92" cy="56.15" r="8.08"/>
<circle class="st7" cx="260.98" cy="42.69" r="5.67"/>
<circle class="st9" cx="258.95" cy="32.14" r="4.89"/>
<circle class="st7" cx="239.11" cy="62.74" r="3.23"/>
<circle class="st7" cx="245.57" cy="58.86" r="3.23"/>
<circle class="st9" cx="168.07" cy="90.29" r="6.73"/>
<circle class="st7" cx="158.4" cy="100.19" r="6.81"/>
<circle class="st14" cx="147.55" cy="103.6" r="4.04"/>
<circle class="st14" cx="154.56" cy="111.04" r="4.04"/>
<circle class="st14" cx="277.84" cy="100.6" r="4.04"/>
<circle class="st9" cx="175.62" cy="59.21" r="3.78"/>
<circle class="st7" cx="87.71" cy="136.55" r="6.81"/>
<circle class="st14" cx="76.4" cy="136.09" r="4.04"/>
<circle class="st13" cx="67.21" cy="135.8" r="4.68"/>
<circle class="st7" cx="150.86" cy="233.64" r="7.57"/>
<circle class="st14" cx="161.85" cy="238.78" r="4.04"/>
<circle class="st14" cx="159.68" cy="225.42" r="4.04"/>
<circle class="st13" cx="167.95" cy="232.03" r="4.68"/>
<circle class="st9" cx="163.66" cy="219.97" r="2.23"/>
<circle class="st9" cx="160.85" cy="232.03" r="2.23"/>
<circle class="st7" cx="166.56" cy="224.47" r="2.72"/>
<circle class="st7" cx="194.49" cy="322.58" r="7.57"/>
<circle class="st14" cx="197.1" cy="310.98" r="4.04"/>
<circle class="st14" cx="181.89" cy="323.62" r="4.97"/>
<circle class="st14" cx="202.05" cy="329.71" r="2.65"/>
<circle class="st9" cx="185.87" cy="317.25" r="2.23"/>
<circle class="st13" cx="184.41" cy="310.34" r="4.68"/>
<circle class="st13" cx="199.5" cy="301.77" r="3.37"/>
<circle class="st9" cx="190.96" cy="313.21" r="2.23"/>
<circle class="st7" cx="180.99" cy="316.42" r="1.8"/>
<circle class="st7" cx="191.72" cy="304.22" r="4.24"/>
<circle class="st14" cx="182.73" cy="302.53" r="3.13"/>
<circle class="st9" cx="187.31" cy="299.54" r="2.23"/>
<circle class="st13" cx="180.83" cy="297.48" r="1.85"/>
<circle class="st14" cx="229.91" cy="351.38" r="4.97"/>
<circle class="st9" cx="223.73" cy="347.33" r="2.23"/>
<circle class="st7" cx="235.13" cy="361.22" r="5.63"/>
<circle class="st13" cx="238.46" cy="352.7" r="3.33"/>
<circle class="st9" cx="233.33" cy="368.65" r="1.8"/>
<circle class="st9" cx="242.13" cy="357.23" r="2.23"/>
<circle class="st14" cx="249.33" cy="355" r="4.97"/>
<circle class="st13" cx="242.44" cy="361.22" r="1.28"/>
<circle class="st7" cx="245" cy="359.94" r="1.28"/>
<circle class="st7" cx="243.72" cy="348.87" r="2.87"/>
<circle class="st13" cx="251.3" cy="346" r="3.93"/>
<circle class="st9" cx="254.8" cy="341.49" r="1.79"/>
<circle class="st9" cx="239.37" cy="347.97" r="1.39"/>
<circle class="st13" cx="271.73" cy="314.42" r="4.68"/>
<circle class="st14" cx="282.36" cy="310.46" r="3.14"/>
<circle class="st7" cx="268.1" cy="303.45" r="2.87"/>
<circle class="st9" cx="268.39" cy="320.54" r="1.93"/>
<circle class="st9" cx="268.52" cy="308.67" r="1.79"/>
<circle class="st9" cx="277.04" cy="310.46" r="1.79"/>
<circle class="st14" cx="272.43" cy="306.87" r="2.31"/>
<circle class="st13" cx="265.23" cy="300.06" r="1.25"/>
<circle class="st7" cx="276.41" cy="306.87" r="1.67"/>
<circle class="st13" cx="286.74" cy="309.6" r="1.25"/>
<circle class="st9" cx="288.97" cy="310.46" r="0.98"/>
<circle class="st7" cx="291.25" cy="309.89" r="0.9"/>
<circle class="st7" cx="278.41" cy="313.76" r="1.67"/>
<path class="st7" d="M305.6,34.15l0-33.56v395.54l-30.42-0.12c-12.44-8.4-20.62-22.64-20.62-38.78c0-25.83,20.94-46.77,46.77-46.77
	c1.44,0,2.86,0.07,4.27,0.19"/>
<line class="st15" x1="305.55" y1="73.65" x2="305.6" y2="35.52"/>
<circle class="st14" cx="293.34" cy="309.77" r="0.52"/>
<circle class="st7" cx="252.89" cy="284.96" r="1.67"/>
<circle class="st13" cx="254.7" cy="287.28" r="1.06"/>
<circle class="st13" cx="246.37" cy="52.49" r="2.75"/>
<line class="st16" x1="305.6" y1="148.59" x2="305.6" y2="67.36"/>
<path class="st15" d="M85.45,0.59"/>
<circle class="st9" cx="249.81" cy="48.07" r="2.32"/>
<circle class="st14" cx="252.59" cy="43.77" r="2.54"/>
<circle class="st7" cx="253.89" cy="39.27" r="1.76"/>
<circle class="st14" cx="265.89" cy="35.63" r="2.54"/>
<circle class="st7" cx="257.4" cy="25.49" r="1.76"/>
<circle class="st13" cx="263.35" cy="65.47" r="3.08"/>
<circle class="st14" cx="254.56" cy="84.29" r="2.54"/>
<circle class="st13" cx="279.47" cy="106.73" r="1.85"/>
<circle class="st13" cx="272.31" cy="98.79" r="1.4"/>
<circle class="st13" cx="281.31" cy="96.04" r="1.4"/>
<circle class="st9" cx="240.3" cy="57.84" r="1.68"/>
<circle class="st14" cx="242.34" cy="55.62" r="0.98"/>
<circle class="st14" cx="264.55" cy="61.42" r="0.98"/>
<circle class="st7" cx="260.56" cy="69.45" r="1.27"/>
<circle class="st9" cx="258.56" cy="65.55" r="1.38"/>
<circle class="st13" cx="253.35" cy="47.45" r="0.98"/>
<circle class="st13" cx="263.84" cy="49.24" r="1.16"/>
<circle class="st9" cx="267.64" cy="39.57" r="1.37"/>
<circle class="st13" cx="269.6" cy="37.2" r="1.16"/>
<circle class="st13" cx="254.16" cy="36.04" r="0.97"/>
<circle class="st14" cx="256.2" cy="37.45" r="0.69"/>
<circle class="st13" cx="256.77" cy="22.2" r="0.97"/>
<circle class="st13" cx="234.45" cy="61.4" r="1.04"/>
<circle class="st14" cx="235.73" cy="59.82" r="0.7"/>
<circle class="st14" cx="255.44" cy="46.75" r="0.7"/>
<circle class="st7" cx="180.92" cy="59.88" r="1.24"/>
<circle class="st7" cx="173.36" cy="54.09" r="1.34"/>
<circle class="st7" cx="173.03" cy="64.12" r="1.34"/>
<circle class="st9" cx="237.25" cy="77.68" r="1.56"/>
<circle class="st9" cx="222.5" cy="75.9" r="1.56"/>
<circle class="st9" cx="221.6" cy="66.8" r="1.02"/>
<circle class="st13" cx="210.22" cy="68.58" r="1.04"/>
<circle class="st13" cx="210.97" cy="76.53" r="1.25"/>
<circle class="st14" cx="201.53" cy="78.58" r="0.98"/>
<circle class="st14" cx="199.92" cy="68.14" r="1.11"/>
<circle class="st13" cx="288.66" cy="81.01" r="1.16"/>
<circle class="st17" cx="280.45" cy="110.2" r="1.16"/>
<circle class="st7" cx="253.32" cy="1.71" r="0.93"/>
<circle class="st9" cx="253.58" cy="3.71" r="0.56"/>
<circle class="st13" cx="176.43" cy="90.45" r="1.43"/>
<circle class="st13" cx="169.55" cy="82.18" r="1.38"/>
<circle class="st9" cx="168.57" cy="79.02" r="1.36"/>
<circle class="st5" cx="166.59" cy="82.01" r="0.78"/>
<circle class="st18" cx="159.76" cy="91.65" r="1.36"/>
<circle class="st13" cx="166.89" cy="98.81" r="1.38"/>
<circle class="st9" cx="159.44" cy="108.6" r="1.17"/>
<circle class="st13" cx="152.38" cy="105.93" r="1.07"/>
<circle class="st7" cx="150.12" cy="98.81" r="1.05"/>
<circle class="st7" cx="141.89" cy="102.98" r="1.05"/>
<circle class="st7" cx="149.2" cy="109.03" r="1.05"/>
<circle class="st9" cx="150.81" cy="107.54" r="0.65"/>
<circle class="st9" cx="154.71" cy="116.82" r="1.17"/>
<circle class="st13" cx="92.85" cy="143.36" r="1.43"/>
<circle class="st12" cx="94.4" cy="141.05" r="0.78"/>
<circle class="st17" cx="95.46" cy="143.36" r="0.83"/>
<circle class="st7" cx="96.21" cy="145.55" r="0.81"/>
<circle class="st13" cx="92.37" cy="129.2" r="1.43"/>
<circle class="st17" cx="80.44" cy="132.5" r="1.1"/>
<circle class="st13" cx="80.28" cy="139.98" r="0.8"/>
<circle class="st17" cx="72.02" cy="139.43" r="0.85"/>
<circle class="st17" cx="72.27" cy="132.81" r="1.1"/>
<circle class="st14" cx="63.74" cy="140.48" r="0.8"/>
<circle class="st17" cx="62.28" cy="139.05" r="0.8"/>
<circle class="st7" cx="62.75" cy="131.24" r="1.27"/>
<circle class="st17" cx="62.16" cy="133.53" r="0.59"/>
</svg>
