<?xml version="1.0" encoding="utf-8"?>
<!-- Generator: Adobe Illustrator 24.0.3, SVG Export Plug-In . SVG Version: 6.00 Build 0)  -->
<svg version="1.1" id="Layer_1" xmlns="http://www.w3.org/2000/svg" xmlns:xlink="http://www.w3.org/1999/xlink" x="0px" y="0px"
	 viewBox="0 0 252 144" style="enable-background:new 0 0 252 144;" xml:space="preserve">
<style type="text/css">
	.st0{font-family:'Roboto-Light';}
	.st1{font-size:6px;}
	.st2{opacity:0.47;fill:#F3B456;stroke:#000000;stroke-width:0.25;stroke-miterlimit:10;enable-background:new    ;}
	.st3{opacity:0.51;fill:#AFDFDF;enable-background:new    ;}
	.st4{opacity:0.46;fill:#946BAE;enable-background:new    ;}
	.st5{fill:#E8C5DE;stroke:#000000;stroke-width:0.5;stroke-miterlimit:10;}
	.st6{opacity:0.47;fill:#F3B456;enable-background:new    ;}
	.st7{opacity:0.61;fill:#F4ABAB;stroke:#000000;stroke-width:0.5;stroke-miterlimit:10;enable-background:new    ;}
	.st8{opacity:0.57;fill:#946BAE;stroke:#000000;stroke-width:0.5;stroke-miterlimit:10;enable-background:new    ;}
	.st9{opacity:0.35;fill:#F4ABAB;stroke:#000000;stroke-width:0.5;stroke-miterlimit:10;enable-background:new    ;}
	.st10{opacity:0.34;fill:#A24399;stroke:#000000;stroke-width:0.5;stroke-miterlimit:10;enable-background:new    ;}
	.st11{opacity:0.4;fill:#AFDFDF;stroke:#000000;stroke-width:0.5;stroke-miterlimit:10;enable-background:new    ;}
	.st12{opacity:0.3;fill:#F3B456;stroke:#000000;stroke-width:0.25;stroke-miterlimit:10;enable-background:new    ;}
	.st13{opacity:0.77;fill:#E8C5DE;stroke:#000000;stroke-width:0.5;stroke-miterlimit:10;enable-background:new    ;}
	.st14{fill:#E8C5DE;stroke:#000000;stroke-width:0.25;stroke-miterlimit:10;}
	.st15{opacity:0.35;fill:#F4ABAB;enable-background:new    ;}
	.st16{opacity:0.26;fill:#F3B456;stroke:#000000;stroke-width:0.25;stroke-miterlimit:10;enable-background:new    ;}
	.st17{font-family:'RobotoSlab-Light';}
	.st18{font-size:21px;}
</style>
<text transform="matrix(1 0 0 1 88.6062 80.9839)" class="st0 st1">Gra</text>
<text transform="matrix(1 0 0 1 97.9362 80.9839)" class="st0 st1">p</text>
<text transform="matrix(1 0 0 1 101.2362 80.9839)" class="st0 st1">hic Desig</text>
<text transform="matrix(1 0 0 1 125.1662 80.9839)" class="st0 st1">n</text>
<text transform="matrix(1 0 0 1 128.4162 80.9839)" class="st0 st1">er • Illustra</text>
<text transform="matrix(1 0 0 1 156.1762 80.9839)" class="st0 st1">t</text>
<text transform="matrix(1 0 0 1 158.0362 80.9839)" class="st0 st1">or</text>
<circle class="st2" cx="209.45" cy="31.72" r="16.95"/>
<path class="st3" d="M252,12.5c-1.84-0.28-3.72-0.44-5.64-0.44c-20.22,0-36.62,16.39-36.62,36.62s16.39,36.62,36.62,36.62
	c1.92,0,3.8-0.16,5.64-0.45"/>
<path class="st4" d="M0,35.44c8.19-0.23,15.95-4.96,19.66-12.88c3.43-7.32,2.55-15.54-1.59-21.83c-0.1-0.15-0.21-0.3-0.32-0.45
	L17.57,0H0V35.44z"/>
<circle class="st5" cx="17.65" cy="38.48" r="16.24"/>
<path class="st6" d="M0,78.08c7.89,2.31,16.5-1.4,20.09-9.08c3.97-8.48,0.32-18.57-8.16-22.54C8.04,44.64,3.82,44.43,0,45.55"/>
<circle class="st7" cx="38.64" cy="60.87" r="11.19"/>
<path class="st3" d="M111.13,144l-0.01-0.06c-1.98-12.13-12.49-21.38-25.18-21.38c-12.61,0-23.08,9.15-25.14,21.17L60.76,144"/>
<circle class="st8" cx="17.84" cy="108.6" r="10.17"/>
<circle class="st9" cx="18.07" cy="81.12" r="13.93"/>
<circle class="st10" cx="55.86" cy="38.48" r="5.52"/>
<circle class="st11" cx="41.28" cy="89.32" r="13.1"/>
<circle class="st12" cx="73.42" cy="102.25" r="11.93"/>
<circle class="st7" cx="9.53" cy="133.3" r="5.39"/>
<circle class="st13" cx="49.64" cy="124.18" r="13.35"/>
<path class="st14" d="M185.56,0c-2.49,7.68,1.07,16.18,8.56,19.69c8.12,3.81,17.79,0.31,21.6-7.82c1.82-3.88,1.95-8.1,0.73-11.88"/>
<circle class="st7" cx="215.77" cy="88.32" r="11.19"/>
<path class="st4" d="M252,90.28c-6.68,1.37-12.65,5.75-15.77,12.4c-5.24,11.19-0.42,24.52,10.77,29.76c1.63,0.76,3.3,1.3,4.99,1.64"
	/>
<circle class="st10" cx="210.1" cy="109.83" r="5.52"/>
<path class="st3" d="M143.99,0c-2.01,2.25-3.24,5.21-3.24,8.47c0,7.05,5.72,12.77,12.77,12.77s12.77-5.72,12.77-12.77
	c0-3.25-1.22-6.21-3.23-8.46"/>
<path class="st15" d="M133.05,0c0.98,1.7,2.47,3.14,4.39,4.04c4.73,2.22,10.3,0.4,12.87-4.04"/>
<circle class="st16" cx="192.49" cy="129.71" r="11.93"/>
<text transform="matrix(1 0 0 1 75.3411 71.0025)" class="st17 st18">Nick Pires</text>
</svg>
