<?xml version="1.0" encoding="utf-8"?>
<!-- Generator: Adobe Illustrator 24.0.3, SVG Export Plug-In . SVG Version: 6.00 Build 0)  -->
<svg version="1.1" id="Layer_1" xmlns="http://www.w3.org/2000/svg" xmlns:xlink="http://www.w3.org/1999/xlink" x="0px" y="0px"
	 viewBox="0 0 1024 768" style="enable-background:new 0 0 1024 768;" xml:space="preserve">
<style type="text/css">
	.st0{opacity:0.46;fill:#946BAE;enable-background:new    ;}
	.st1{fill:#E8C5DE;}
	.st2{opacity:0.47;fill:#F3B456;enable-background:new    ;}
	.st3{opacity:0.61;fill:#F4ABAB;enable-background:new    ;}
	.st4{opacity:0.51;fill:#AFDFDF;enable-background:new    ;}
	.st5{opacity:0.57;fill:#946BAE;enable-background:new    ;}
	.st6{opacity:0.35;fill:#F4ABAB;enable-background:new    ;}
	.st7{opacity:0.34;fill:#A24399;enable-background:new    ;}
	.st8{opacity:0.4;fill:#AFDFDF;enable-background:new    ;}
	.st9{opacity:0.3;fill:#F3B456;enable-background:new    ;}
	.st10{opacity:0.77;fill:#E8C5DE;enable-background:new    ;}
	.st11{opacity:0.42;fill:#F4ABAB;enable-background:new    ;}
	.st12{opacity:0.46;fill:#936BAD;enable-background:new    ;}
	.st13{fill:#E7C5DD;}
	.st14{opacity:0.47;fill:#F3B355;enable-background:new    ;}
	.st15{opacity:0.61;fill:#F3AAAA;enable-background:new    ;}
	.st16{opacity:0.51;fill:#AEDEDF;enable-background:new    ;}
	.st17{opacity:0.57;fill:#936BAD;enable-background:new    ;}
	.st18{opacity:0.35;fill:#F3AAAA;enable-background:new    ;}
	.st19{opacity:0.34;fill:#A14398;enable-background:new    ;}
	.st20{opacity:0.4;fill:#AEDEDF;enable-background:new    ;}
	.st21{opacity:0.3;fill:#F3B355;enable-background:new    ;}
	.st22{opacity:0.77;fill:#E7C5DD;enable-background:new    ;}
</style>
<g id="Layer_2_1_">
	<path class="st0" d="M648.9,430.4c7.5,0,14.9,3.7,19.1,10.6c6.5,10.5,3.3,24.3-7.2,30.8s-24.3,3.3-30.8-7.2s-3.3-24.3,7.2-30.8
		C640.9,431.5,644.9,430.4,648.9,430.4"/>
	<circle class="st1" cx="680.3" cy="451.4" r="16.2"/>
	<circle class="st2" cx="692.8" cy="475" r="17"/>
	<circle class="st3" cx="710.5" cy="446.1" r="11.2"/>
	<circle class="st4" cx="809.4" cy="454.1" r="25.5"/>
	<circle class="st5" cx="739.1" cy="489.6" r="10.2"/>
	<circle class="st6" cx="716.2" cy="474.4" r="13.9"/>
	<circle class="st7" cx="701.2" cy="419.4" r="5.5"/>
	<circle class="st8" cx="735.8" cy="459.4" r="13.1"/>
	<circle class="st9" cx="764.2" cy="439.6" r="11.9"/>
	<circle class="st3" cx="755.3" cy="510" r="5.4"/>
	<circle class="st10" cx="769.6" cy="471.5" r="13.3"/>
	<path class="st0" d="M779.4,355.7c6.8,3.2,11.9,9.8,12.8,17.8c1.4,12.3-7.5,23.4-19.7,24.7c-12.3,1.4-23.4-7.5-24.7-19.7
		s7.5-23.4,19.7-24.7C771.7,353.3,775.8,354,779.4,355.7"/>
	<circle class="st1" cx="798.8" cy="388.1" r="16.2"/>
	<circle class="st2" cx="800" cy="414.8" r="17"/>
	<circle class="st3" cx="828.4" cy="396.2" r="11.2"/>
	<circle class="st4" cx="914.3" cy="445.9" r="25.5"/>
	<circle class="st5" cx="835.6" cy="447.8" r="10.2"/>
	<circle class="st6" cx="821.4" cy="424.3" r="13.9"/>
	<circle class="st7" cx="831.3" cy="368.2" r="5.5"/>
	<circle class="st8" cx="845.5" cy="419.1" r="13.1"/>
	<circle class="st9" cx="879.6" cy="413.3" r="11.9"/>
	<circle class="st3" cx="841.4" cy="473.2" r="5.4"/>
	<circle class="st10" cx="870.8" cy="444.5" r="13.3"/>
	<circle class="st2" cx="875" cy="511.9" r="33.5"/>
	<circle class="st11" cx="574.6" cy="519.5" r="37"/>
	<path class="st0" d="M967.9,508.2c6.8,3.2,11.9,9.7,12.8,17.8c1.4,12.3-7.5,23.4-19.7,24.7c-12.3,1.4-23.4-7.5-24.7-19.7
		c-1.4-12.3,7.5-23.4,19.7-24.7C960.2,505.8,964.3,506.5,967.9,508.2"/>
</g>
<g id="Layer_1_1_">
	<path class="st0" d="M58.8-7.6C71.6,3.1,78.7,20,76.1,37.7c-4,27.1-29.2,45.8-56.2,41.9S-26,50.4-22,23.3S7.2-22.5,34.2-18.5
		C43.6-17.2,52-13.2,58.8-7.6"/>
	<circle class="st1" cx="82" cy="72.8" r="36"/>
	<circle class="st2" cx="69.5" cy="130.5" r="37.5"/>
	<circle class="st3" cx="140.8" cy="106.8" r="24.8"/>
	<circle class="st4" cx="296.8" cy="261.5" r="56.5"/>
	<circle class="st5" cx="127.2" cy="221.3" r="22.5"/>
	<circle class="st6" cx="110.1" cy="162.9" r="30.9"/>
	<circle class="st7" cx="163" cy="48.3" r="12.2"/>
	<circle class="st8" cx="164.6" cy="165.5" r="29"/>
	<ellipse class="st9" cx="241" cy="172.4" rx="26.4" ry="26.4"/>
	<circle class="st3" cx="155" cy="266.4" r="17.5"/>
	<circle class="st10" cx="204.6" cy="234.1" r="29.6"/>
	<path class="st0" d="M242.1,480.3c-8.6-6.9-13.4-18-11.9-29.8c2.4-18,18.8-30.6,36.8-28.3s30.6,18.8,28.3,36.8
		s-18.8,30.6-36.8,28.3C252.2,486.5,246.6,483.9,242.1,480.3"/>
	<circle class="st1" cx="225.9" cy="427.4" r="23.8"/>
	
		<ellipse transform="matrix(0.1602 -0.9871 0.9871 0.1602 -187.939 557.238)" class="st2" cx="233.5" cy="389.1" rx="24.9" ry="24.8"/>
	<circle class="st3" cx="186.6" cy="405.4" r="16.4"/>
	<circle class="st4" cx="81.8" cy="304.6" r="37.4"/>
	<circle class="st5" cx="194.5" cy="329.5" r="14.9"/>
	<circle class="st6" cx="206.4" cy="368" r="20.4"/>
	<circle class="st7" cx="172.5" cy="444.3" r="8.1"/>
	<circle class="st8" cx="170.3" cy="366.8" r="19.2"/>
	<circle class="st9" cx="119.7" cy="363.1" r="17.5"/>
	<circle class="st3" cx="195.1" cy="291.3" r="7.9"/>
	<circle class="st10" cx="143.1" cy="321.9" r="19.6"/>
	<path class="st0" d="M278.5,327.8c6.4,4,10.5,11.2,10.4,19.2c-0.2,12.4-10.4,22.2-22.7,22s-22.2-10.4-22.1-22.7s10.4-22.2,22.7-22
		C271.2,324.4,275.2,325.6,278.5,327.8"/>
	<circle class="st1" cx="293.7" cy="362.4" r="16.2"/>
	<circle class="st2" cx="291.5" cy="388.9" r="17"/>
	<circle class="st3" cx="322" cy="374.1" r="11.2"/>
	<circle class="st4" cx="401" cy="434.2" r="25.5"/>
	<circle class="st5" cx="322.6" cy="426.2" r="10.2"/>
	<circle class="st6" cx="311.6" cy="401" r="13.9"/>
	<circle class="st7" cx="328.5" cy="346.6" r="5.5"/>
	<circle class="st8" cx="336.1" cy="399" r="13.1"/>
	<circle class="st9" cx="370.7" cy="397.6" r="11.9"/>
	<circle class="st3" cx="325.2" cy="452.1" r="5.4"/>
	<circle class="st10" cx="358" cy="427.3" r="13.4"/>
	<path class="st0" d="M365.9,510.7c-9.4-1.6-19.5,1.5-26.2,9.2c-10.4,11.8-9.2,29.8,2.5,40.1s29.8,9.2,40.1-2.5s9.2-29.8-2.5-40.1
		C375.7,513.7,370.9,511.5,365.9,510.7"/>
	<circle class="st1" cx="322.1" cy="530.3" r="20.6"/>
	<circle class="st2" cx="301.5" cy="557.1" r="21.5"/>
	<circle class="st3" cx="285.4" cy="517.2" r="14.2"/>
	
		<ellipse transform="matrix(0.9951 -9.853769e-02 9.853769e-02 0.9951 -49.1021 18.2098)" class="st4" cx="159.8" cy="506.2" rx="32.4" ry="32.4"/>
	<circle class="st5" cx="240.3" cy="565.6" r="12.9"/>
	<circle class="st6" cx="272.2" cy="551.4" r="17.7"/>
	<circle class="st7" cx="412.4" cy="397.6" r="7"/>
	<circle class="st8" cx="250.9" cy="528.5" r="16.7"/>
	<circle class="st9" cx="219.6" cy="497.6" r="15.2"/>
	<circle class="st3" cx="215.7" cy="587.8" r="6.8"/>
	<circle class="st10" cx="206" cy="536.4" r="17"/>
	<path class="st0" d="M478.2,534c-6.4-1.6-11.9-6.4-14.1-13.2c-3.3-10.4,2.5-21.5,12.9-24.8s21.5,2.5,24.8,12.9s-2.5,21.5-12.9,24.8
		C485.4,534.8,481.7,534.8,478.2,534"/>
	<circle class="st1" cx="456" cy="509.2" r="14.3"/>
	<circle class="st2" cx="450.4" cy="486.4" r="15"/>
	<circle class="st3" cx="429" cy="507.3" r="9.9"/>
	<circle class="st4" cx="346.1" cy="479" r="22.5"/>
	<circle class="st5" cx="413.9" cy="463.9" r="9"/>
	<circle class="st6" cx="430.2" cy="481.8" r="12.3"/>
	<circle class="st7" cx="431.2" cy="532.1" r="4.9"/>
	<circle class="st8" cx="410.2" cy="490.4" r="11.6"/>
	<circle class="st9" cx="381.6" cy="501.2" r="10.5"/>
	<circle class="st3" cx="404.5" cy="442.9" r="4.8"/>
	<circle class="st10" cx="384" cy="472.8" r="11.8"/>
	<path class="st0" d="M441.8,575.2c4.7-3.5,11-4.6,16.8-2.3c8.9,3.5,13.3,13.6,9.8,22.5s-13.6,13.3-22.5,9.8s-13.3-13.6-9.8-22.5
		C437.3,579.6,439.3,577,441.8,575.2"/>
	<circle class="st1" cx="471" cy="573.6" r="12.6"/>
	<circle class="st2" cx="489.7" cy="582.4" r="13.2"/>
	<circle class="st3" cx="487.3" cy="556.2" r="8.7"/>
	<circle class="st4" cx="412.1" cy="557.1" r="19.8"/>
	<circle class="st5" cx="525.3" cy="570" r="7.9"/>
	<ellipse class="st6" cx="504.1" cy="571.2" rx="10.8" ry="10.8"/>
	<circle class="st7" cx="469.1" cy="544" r="4.3"/>
	<circle class="st8" cx="509.2" cy="552.8" r="10.2"/>
	<circle class="st9" cx="517.7" cy="527.2" r="9.3"/>
	<circle class="st3" cx="409.3" cy="595.6" r="4.2"/>
	<circle class="st10" cx="375.4" cy="578.7" r="10.4"/>
	<path class="st0" d="M478,444.4c6.8-3.2,15.1-2.9,21.8,1.6c10.3,6.8,13.2,20.7,6.4,31c-6.8,10.3-20.7,13.2-31,6.4
		s-13.2-20.7-6.4-31C471.2,448.8,474.4,446.1,478,444.4"/>
	<circle class="st1" cx="515.3" cy="450.2" r="16.2"/>
	<circle class="st2" cx="536.5" cy="466.4" r="17"/>
	<circle class="st3" cx="540.5" cy="432.7" r="11.2"/>
	<circle class="st4" cx="633.5" cy="398.4" r="25.5"/>
	<circle class="st5" cx="584.7" cy="460.1" r="10.2"/>
	<circle class="st6" cx="557.6" cy="455.9" r="13.9"/>
	<circle class="st7" cx="520.8" cy="412.4" r="5.5"/>
	<circle class="st8" cx="569" cy="434.1" r="13.1"/>
	<circle class="st9" cx="586.4" cy="404.2" r="11.9"/>
	<circle class="st3" cx="608" cy="471.9" r="5.4"/>
	<circle class="st10" cx="604.7" cy="430.9" r="13.3"/>
	<circle class="st2" cx="729" cy="404.6" r="17"/>
	<path class="st0" d="M828.9,494.9c3,4.5,3.6,10.5,1.1,15.7c-3.8,8.1-13.4,11.5-21.5,7.8c-8.1-3.8-11.5-13.4-7.8-21.5
		c3.8-8.1,13.4-11.5,21.5-7.8C825.1,490.5,827.3,492.5,828.9,494.9"/>
	<circle class="st1" cx="828.6" cy="522.1" r="11.7"/>
	<circle class="st2" cx="819.3" cy="538.9" r="12.2"/>
	<circle class="st3" cx="843.8" cy="538.2" r="8.1"/>
	<circle class="st4" cx="877.8" cy="601.1" r="18.4"/>
	<circle class="st5" cx="828.8" cy="572.6" r="7.3"/>
	<circle class="st6" cx="828.9" cy="552.8" r="10"/>
	<circle class="st7" cx="856.2" cy="522.1" r="4"/>
	<circle class="st8" cx="845.7" cy="558.7" r="9.5"/>
	<circle class="st9" cx="868.8" cy="568.1" r="8.6"/>
	<circle class="st3" cx="822.8" cy="590.5" r="3.9"/>
	<circle class="st10" cx="851.7" cy="583.9" r="9.6"/>
	<path class="st0" d="M952,682.7c-2.7-5.1-2.7-11.5,0.5-16.8c4.9-8.1,15.5-10.8,23.6-5.8s10.8,15.5,5.8,23.6
		c-4.9,8.1-15.5,10.8-23.6,5.8C955.5,687.8,953.4,685.4,952,682.7"/>
	<circle class="st1" cx="955.3" cy="653.9" r="12.5"/>
	<circle class="st2" cx="967.1" cy="637.1" r="13"/>
	<circle class="st3" cx="941.1" cy="635" r="8.6"/>
	<circle class="st4" cx="911.9" cy="564.6" r="19.6"/>
	<circle class="st5" cx="960.8" cy="600.2" r="7.8"/>
	<circle class="st6" cx="958.4" cy="621.2" r="10.7"/>
	<circle class="st7" cx="926.1" cy="650.8" r="4.2"/>
	<circle class="st8" cx="941.3" cy="613.1" r="10.1"/>
	<circle class="st9" cx="917.8" cy="600.6" r="9.2"/>
	<circle class="st3" cx="969.2" cy="582" r="4.2"/>
	<circle class="st10" cx="937.8" cy="585.8" r="10.3"/>
	<path class="st0" d="M905.7,631.7c2.5,3.9,3.1,9,1,13.5c-3.2,6.9-11.5,9.9-18.4,6.7s-9.9-11.5-6.7-18.4s11.5-9.9,18.4-6.7
		C902.5,628,904.4,629.7,905.7,631.7"/>
	<circle class="st1" cx="905.5" cy="655" r="10"/>
	<circle class="st2" cx="897.5" cy="669.4" r="10.5"/>
	<circle class="st3" cx="918.4" cy="668.8" r="6.9"/>
	<circle class="st4" cx="947.6" cy="722.6" r="15.7"/>
	<circle class="st5" cx="905.6" cy="698.3" r="6.3"/>
	<circle class="st6" cx="905.7" cy="681.3" r="8.6"/>
	<circle class="st7" cx="929" cy="655" r="3.4"/>
	<circle class="st8" cx="920" cy="686.4" r="8.1"/>
	<circle class="st9" cx="939.9" cy="694.4" r="7.4"/>
	<circle class="st3" cx="900.5" cy="713.5" r="3.3"/>
	<circle class="st10" cx="925.2" cy="707.9" r="8.2"/>
	<circle class="st2" cx="984.4" cy="728.1" r="10.5"/>
	<circle class="st3" cx="973.3" cy="747" r="8.6"/>
	<circle class="st8" cx="951.4" cy="768" r="10.1"/>
	<circle class="st3" cx="994.9" cy="759.7" r="4.2"/>
	<circle class="st2" cx="107.1" cy="-35.1" r="67"/>
	<circle class="st8" cx="-12.3" cy="108.7" r="29"/>
	<path class="st0" d="M221.3,74c6.4,4,10.5,11.2,10.4,19.2c-0.2,12.4-10.4,22.2-22.7,22.1s-22.2-10.3-22-22.7s10.4-22.2,22.7-22
		C214,70.6,218,71.9,221.3,74"/>
	<circle class="st3" cx="32" cy="168" r="17.5"/>
	<circle class="st4" cx="-41.4" cy="-83.5" r="75.7"/>
</g>
<path class="st12" d="M980.1,762.6c1.2,1.8,1.4,4.2,0.5,6.3c-1.5,3.2-5.4,4.6-8.6,3.1c-3.2-1.5-4.6-5.4-3.1-8.6s5.4-4.6,8.6-3.1
	C978.6,760.9,979.5,761.7,980.1,762.6"/>
<circle class="st13" cx="980" cy="773.5" r="4.7"/>
<circle class="st14" cx="976.3" cy="780.3" r="4.9"/>
<circle class="st15" cx="986" cy="780" r="3.2"/>
<circle class="st16" cx="1002.3" cy="776.8" r="7.4"/>
<circle class="st17" cx="958.6" cy="744.1" r="2.9"/>
<circle class="st18" cx="980.1" cy="785.9" r="4"/>
<circle class="st19" cx="991" cy="773.5" r="1.6"/>
<circle class="st20" cx="986.8" cy="788.2" r="3.8"/>
<circle class="st21" cx="996.1" cy="792" r="3.4"/>
<circle class="st15" cx="977.6" cy="800.9" r="1.6"/>
<circle class="st22" cx="947.6" cy="749" r="3.9"/>
<path class="st12" d="M1015.2,795.5c1.8,1,3.1,2.9,3.2,5.2c0.1,3.4-2.5,6.4-6,6.5c-3.4,0.1-6.4-2.5-6.5-6c-0.1-3.4,2.5-6.4,6-6.5
	C1013.1,794.6,1014.2,794.9,1015.2,795.5"/>
<circle class="st13" cx="989.3" cy="802.4" r="4.5"/>
<circle class="st14" cx="982.8" cy="812.9" r="4.7"/>
<circle class="st15" cx="996.1" cy="811.8" r="3.1"/>
<circle class="st17" cx="1002.3" cy="827.4" r="2.8"/>
<circle class="st18" cx="998.8" cy="820.6" r="3.9"/>
<circle class="st19" cx="1002.7" cy="805.2" r="1.5"/>
<circle class="st20" cx="1005.6" cy="819.6" r="3.7"/>
<circle class="st21" cx="934.4" cy="742.9" r="3.3"/>
<circle class="st15" cx="1012.2" cy="821.2" r="1.5"/>
<circle class="st22" cx="1014.7" cy="814.9" r="3.7"/>
<circle class="st14" cx="1033.9" cy="820.9" r="1.2"/>
<circle class="st19" cx="1037.7" cy="812.9" r="1.5"/>
<circle class="st20" cx="1027.3" cy="811.1" r="2.3"/>
<circle class="st14" cx="1011" cy="828.1" r="2"/>
<circle class="st17" cx="1013" cy="825.1" r="1.2"/>
<circle class="st15" cx="1015.3" cy="828.9" r="0.8"/>
</svg>
