<svg id="Layer_1" data-name="Layer 1" xmlns="http://www.w3.org/2000/svg" viewBox="0 0 25.97 24.97"><defs><style>.cls-1{fill:none;stroke:#afdfdf;stroke-miterlimit:10;}</style></defs><title>Linked-In-Icon</title><rect class="cls-1" x="0.64" y="8.31" width="5.32" height="16.16" rx="1.08"/><path class="cls-1" d="M144.13,77.24v8.12a.6.6,0,0,1-.6.6h-4.17a.59.59,0,0,1-.59-.6V76.25a1.33,1.33,0,0,0,0-.28,2.75,2.75,0,0,0-2.8-2.34,2.81,2.81,0,0,0-2.85,2.22,2,2,0,0,0-.06.48v9a.6.6,0,0,1-.6.6h-4.07a.6.6,0,0,1-.6-.6v-15a.59.59,0,0,1,.6-.59h4a.59.59,0,0,1,.6.59h0a.59.59,0,0,0,1,.44,5.66,5.66,0,0,1,4.58-1.42c3.7.49,4.72,3,4.72,3A12.79,12.79,0,0,1,144.13,77.24Z" transform="translate(-118.65 -61.49)"/><circle class="cls-1" cx="3.3" cy="3.3" r="2.8"/></svg>